<svg width="160" height="40" viewBox="0 0 160 40" fill="none" xmlns="http://www.w3.org/2000/svg">
    <g clip-path="url(#clip0_50_921)">
        <path fill-rule="evenodd" clip-rule="evenodd"
            d="M0.0853882 7.99561V31.9683L8.06644 39.9587V15.9865H24.0283L16.0471 7.99561H0.0853882Z" fill="#4A51DD" />
        <path fill-rule="evenodd" clip-rule="evenodd"
            d="M8.06665 23.9775H24.0284V0.00488281L32.0094 7.99574V31.9683H16.0473L8.06665 23.9775Z" fill="#4ED89D" />
        <path
            d="M156.223 31.967L155.881 30.0837H155.709C155.368 30.5175 154.958 30.894 154.478 31.214C153.384 31.9442 152.084 32.3098 150.58 32.3098C148.299 32.3098 146.389 31.471 144.85 29.793C143.311 28.1145 142.541 25.9287 142.541 23.2349C142.541 20.5412 143.311 18.3549 144.85 16.6769C146.389 14.9988 148.299 14.16 150.58 14.16C151.947 14.16 153.201 14.5365 154.342 15.29C154.82 15.6096 155.22 15.9751 155.539 16.3858H155.709V7.99561H159.985V31.967H156.223ZM148.048 27.0187C148.869 27.9205 149.941 28.3715 151.264 28.3715C152.586 28.3715 153.658 27.9205 154.478 27.0187C155.299 26.1169 155.709 24.8557 155.709 23.2345C155.709 21.6138 155.299 20.3522 154.478 19.4507C153.658 18.5489 152.586 18.0979 151.264 18.0979C149.941 18.0979 148.869 18.5489 148.048 19.4507C147.227 20.3526 146.817 21.6138 146.817 23.2345C146.817 24.8557 147.227 26.1169 148.048 27.0187Z"
            fill="white" />
        <path
            d="M123.047 31.967V14.502H126.979L127.322 16.2142H127.493C127.766 15.8718 128.154 15.5291 128.656 15.1867C129.704 14.502 130.913 14.1597 132.281 14.1597C134.265 14.1597 135.901 14.8391 137.19 16.1971C138.478 17.5555 139.121 19.3304 139.121 21.5219V31.9666H134.847V21.8642C134.847 20.7457 134.499 19.8382 133.803 19.1417C133.108 18.4452 132.201 18.0972 131.084 18.0972C129.967 18.0972 129.06 18.4452 128.365 19.1417C127.669 19.8382 127.322 20.7453 127.322 21.8642V31.9666H123.047V31.967Z"
            fill="white" />
        <path
            d="M114.495 26.8306H118.942C118.828 27.2644 118.605 27.7494 118.275 28.2862C117.945 28.8229 117.477 29.4166 116.873 30.0671C116.268 30.7176 115.441 31.2544 114.393 31.6764C113.344 32.0988 112.182 32.3099 110.905 32.3099C108.328 32.3099 106.202 31.4597 104.525 29.7585C102.85 28.0576 102.012 25.8832 102.012 23.235C102.012 20.5869 102.85 18.4123 104.525 16.7116C106.202 15.0108 108.328 14.1602 110.905 14.1602C113.299 14.1602 115.322 14.999 116.976 16.677C118.628 18.355 119.455 20.4267 119.455 22.8922C119.455 23.098 119.421 23.5091 119.352 24.1251L119.283 24.6049H106.286C106.469 25.8372 106.982 26.8306 107.825 27.584C108.669 28.3375 109.695 28.7144 110.904 28.7144C111.815 28.7144 112.591 28.5148 113.23 28.115C113.868 27.7157 114.29 27.2876 114.495 26.831V26.8306ZM106.287 21.694H115.179C114.974 20.5299 114.501 19.5826 113.76 18.8519C113.02 18.1212 112.067 17.7557 110.905 17.7557C109.673 17.7557 108.664 18.1151 107.877 18.8345C107.091 19.5537 106.561 20.5068 106.287 21.6936V21.694Z"
            fill="white" />
        <path
            d="M84.0039 16.711C85.6795 15.0103 87.8056 14.1597 90.3823 14.1597C92.959 14.1597 95.0851 15.0103 96.7607 16.711C98.4373 18.4119 99.2756 20.5863 99.2756 23.2346C99.2756 25.8827 98.4373 28.0572 96.7607 29.758C95.0851 31.4588 92.959 32.3094 90.3823 32.3094C87.8056 32.3094 85.6795 31.4592 84.0039 29.758C82.3274 28.0572 81.4901 25.8827 81.4901 23.2346C81.4901 20.5863 82.3274 18.4119 84.0039 16.711ZM87.0989 26.9329C87.9882 27.8918 89.0827 28.3711 90.3823 28.3711C91.682 28.3711 92.7764 27.8918 93.6658 26.9329C94.5551 25.9742 94.9997 24.7414 94.9997 23.2346C94.9997 21.7276 94.5551 20.4949 93.6658 19.5361C92.7764 18.5774 91.682 18.0979 90.3823 18.0979C89.0827 18.0979 87.9882 18.5778 87.0989 19.5361C86.2105 20.4949 85.7649 21.7276 85.7649 23.2346C85.7649 24.7414 86.2096 25.9742 87.0989 26.9329Z"
            fill="white" />
        <path
            d="M69.8606 31.967V14.502H73.4522L73.794 16.043H73.965C74.1705 15.769 74.4211 15.5181 74.7175 15.2896C75.4246 14.7647 76.1998 14.502 77.0433 14.502H80.4635V18.6114H77.3852C75.2191 18.6114 74.136 19.6959 74.136 21.8646V31.967H69.8606Z"
            fill="white" />
        <path
            d="M47.9709 31.967V7.99561H58.7447C61.0023 7.99561 62.8208 8.72583 64.2 10.1872C65.5794 11.6485 66.2694 13.6001 66.2694 16.043C66.2694 18.4858 65.5799 20.438 64.2 21.8989C62.8204 23.3597 61.0019 24.0904 58.7447 24.0904H52.4174V31.9666H47.9709V31.967ZM52.4174 19.8102H58.5738C59.5546 19.8102 60.3411 19.4788 60.9337 18.8168C61.5266 18.1549 61.823 17.2303 61.823 16.043C61.823 14.8558 61.5266 13.9311 60.9337 13.2692C60.3407 12.6068 59.5546 12.2759 58.5738 12.2759H52.4174V19.8098V19.8102Z"
            fill="white" />
    </g>
</svg>