<svg  viewBox="0 0 22 23"  xmlns="http://www.w3.org/2000/svg">
<path d="M2.75 6C2.75 5.81766 2.82243 5.6428 2.95136 5.51386C3.0803 5.38493 3.25516 5.3125 3.4375 5.3125H18.5625C18.7448 5.3125 18.9197 5.38493 19.0486 5.51386C19.1776 5.6428 19.25 5.81766 19.25 6C19.25 6.18234 19.1776 6.3572 19.0486 6.48614C18.9197 6.61507 18.7448 6.6875 18.5625 6.6875H3.4375C3.25516 6.6875 3.0803 6.61507 2.95136 6.48614C2.82243 6.3572 2.75 6.18234 2.75 6ZM3.4375 12.1875H18.5625C18.7448 12.1875 18.9197 12.1151 19.0486 11.9861C19.1776 11.8572 19.25 11.6823 19.25 11.5C19.25 11.3177 19.1776 11.1428 19.0486 11.0139C18.9197 10.8849 18.7448 10.8125 18.5625 10.8125H3.4375C3.25516 10.8125 3.0803 10.8849 2.95136 11.0139C2.82243 11.1428 2.75 11.3177 2.75 11.5C2.75 11.6823 2.82243 11.8572 2.95136 11.9861C3.0803 12.1151 3.25516 12.1875 3.4375 12.1875ZM12.375 16.3125H3.4375C3.25516 16.3125 3.0803 16.3849 2.95136 16.5139C2.82243 16.6428 2.75 16.8177 2.75 17C2.75 17.1823 2.82243 17.3572 2.95136 17.4861C3.0803 17.6151 3.25516 17.6875 3.4375 17.6875H12.375C12.5573 17.6875 12.7322 17.6151 12.8611 17.4861C12.9901 17.3572 13.0625 17.1823 13.0625 17C13.0625 16.8177 12.9901 16.6428 12.8611 16.5139C12.7322 16.3849 12.5573 16.3125 12.375 16.3125ZM19.9375 16.3125H18.5625V14.9375C18.5625 14.7552 18.4901 14.5803 18.3611 14.4514C18.2322 14.3224 18.0573 14.25 17.875 14.25C17.6927 14.25 17.5178 14.3224 17.3889 14.4514C17.2599 14.5803 17.1875 14.7552 17.1875 14.9375V16.3125H15.8125C15.6302 16.3125 15.4553 16.3849 15.3264 16.5139C15.1974 16.6428 15.125 16.8177 15.125 17C15.125 17.1823 15.1974 17.3572 15.3264 17.4861C15.4553 17.6151 15.6302 17.6875 15.8125 17.6875H17.1875V19.0625C17.1875 19.2448 17.2599 19.4197 17.3889 19.5486C17.5178 19.6776 17.6927 19.75 17.875 19.75C18.0573 19.75 18.2322 19.6776 18.3611 19.5486C18.4901 19.4197 18.5625 19.2448 18.5625 19.0625V17.6875H19.9375C20.1198 17.6875 20.2947 17.6151 20.4236 17.4861C20.5526 17.3572 20.625 17.1823 20.625 17C20.625 16.8177 20.5526 16.6428 20.4236 16.5139C20.2947 16.3849 20.1198 16.3125 19.9375 16.3125Z" />
</svg>
