<svg viewBox="0 0 20 20" xmlns="http://www.w3.org/2000/svg">
    <path
        d="M4.40832 13.1583C4.48579 13.2365 4.57796 13.2985 4.67951 13.3408C4.78106 13.3831 4.88998 13.4048 4.99999 13.4048C5.11 13.4048 5.21892 13.3831 5.32047 13.3408C5.42202 13.2985 5.51419 13.2365 5.59166 13.1583L9.40832 9.34168C9.48579 9.26357 9.57796 9.20158 9.67951 9.15927C9.78106 9.11696 9.88998 9.09518 9.99999 9.09518C10.11 9.09518 10.2189 9.11696 10.3205 9.15927C10.422 9.20158 10.5142 9.26357 10.5917 9.34168L14.4083 13.1583C14.4858 13.2365 14.578 13.2985 14.6795 13.3408C14.7811 13.3831 14.89 13.4048 15 13.4048C15.11 13.4048 15.2189 13.3831 15.3205 13.3408C15.422 13.2985 15.5142 13.2365 15.5917 13.1583C15.7469 13.0022 15.834 12.791 15.834 12.5708C15.834 12.3507 15.7469 12.1395 15.5917 11.9833L11.7667 8.15835C11.2979 7.69018 10.6625 7.42721 9.99999 7.42721C9.33749 7.42721 8.70208 7.69018 8.23332 8.15835L4.40832 11.9833C4.25312 12.1395 4.166 12.3507 4.166 12.5708C4.166 12.791 4.25312 13.0022 4.40832 13.1583Z" />
</svg>