<svg viewBox="0 0 20 20" xmlns="http://www.w3.org/2000/svg">
    <path
        d="M13.1583 15.5917C13.2364 15.5142 13.2984 15.422 13.3407 15.3205C13.383 15.2189 13.4048 15.11 13.4048 15C13.4048 14.89 13.383 14.7811 13.3407 14.6795C13.2984 14.578 13.2364 14.4858 13.1583 14.4083L9.34162 10.5917C9.26351 10.5142 9.20152 10.422 9.15921 10.3205C9.1169 10.2189 9.09512 10.11 9.09512 10C9.09512 9.89 9.1169 9.78108 9.15921 9.67953C9.20152 9.57798 9.26351 9.48581 9.34162 9.40834L13.1583 5.59168C13.2364 5.51421 13.2984 5.42204 13.3407 5.32049C13.383 5.21894 13.4048 5.11002 13.4048 5.00001C13.4048 4.89 13.383 4.78108 13.3407 4.67953C13.2984 4.57798 13.2364 4.48581 13.1583 4.40834C13.0022 4.25313 12.7909 4.16602 12.5708 4.16602C12.3506 4.16602 12.1394 4.25313 11.9833 4.40834L8.15829 8.23334C7.69012 8.70209 7.42715 9.33751 7.42715 10C7.42715 10.6625 7.69012 11.2979 8.15829 11.7667L11.9833 15.5917C12.1394 15.7469 12.3506 15.834 12.5708 15.834C12.7909 15.834 13.0022 15.7469 13.1583 15.5917Z" />
</svg>