<svg viewBox="0 0 20 20" xmlns="http://www.w3.org/2000/svg">
    <path
        d="M6.84171 4.40832C6.76361 4.48579 6.70161 4.57796 6.6593 4.67951C6.617 4.78106 6.59521 4.88998 6.59521 4.99999C6.59521 5.11 6.617 5.21892 6.6593 5.32047C6.70161 5.42202 6.76361 5.51419 6.84171 5.59166L10.6584 9.40832C10.7365 9.48579 10.7985 9.57796 10.8408 9.67951C10.8831 9.78106 10.9049 9.88998 10.9049 9.99999C10.9049 10.11 10.8831 10.2189 10.8408 10.3205C10.7985 10.422 10.7365 10.5142 10.6584 10.5917L6.84171 14.4083C6.76361 14.4858 6.70161 14.578 6.6593 14.6795C6.617 14.7811 6.59521 14.89 6.59521 15C6.59521 15.11 6.617 15.2189 6.6593 15.3205C6.70161 15.422 6.76361 15.5142 6.84171 15.5917C6.99785 15.7469 7.20906 15.834 7.42921 15.834C7.64937 15.834 7.86058 15.7469 8.01671 15.5917L11.8417 11.7667C12.3099 11.2979 12.5728 10.6625 12.5728 9.99999C12.5728 9.33749 12.3099 8.70208 11.8417 8.23332L8.01671 4.40832C7.86058 4.25312 7.64937 4.166 7.42921 4.166C7.20906 4.166 6.99785 4.25312 6.84171 4.40832Z" />
</svg>