<svg viewBox="0 0 22 22" xmlns="http://www.w3.org/2000/svg">
    <path
        d="M3.729 16.5H18.0803C18.522 16.5 18.9572 16.3936 19.3491 16.1899C19.7409 15.9861 20.078 15.691 20.3316 15.3294C20.5853 14.9678 20.7482 14.5505 20.8064 14.1126C20.8646 13.6748 20.8166 13.2294 20.6663 12.8141L18.0519 5.58617C17.6054 3.9799 16.6451 2.56409 15.3178 1.55528C13.9905 0.546471 12.3693 0.000194405 10.7021 9.32535e-10C8.96659 -2.71263e-05 7.28296 0.591789 5.9292 1.67774C4.57543 2.76368 3.63247 4.27882 3.256 5.973L1.10184 12.9397C0.975006 13.351 0.946493 13.7863 1.01859 14.2107C1.09069 14.635 1.26139 15.0365 1.51695 15.3828C1.77251 15.7291 2.1058 16.0107 2.49 16.2047C2.8742 16.3987 3.29858 16.4999 3.729 16.5Z" />
    <path
        d="M6.5083 18.3333C6.71869 19.3694 7.2808 20.3009 8.0994 20.97C8.91799 21.6391 9.94272 22.0046 11 22.0046C12.0572 22.0046 13.0819 21.6391 13.9005 20.97C14.7191 20.3009 15.2812 19.3694 15.4916 18.3333H6.5083Z" />
</svg>