<svg viewBox="0 0 24 24" xmlns="http://www.w3.org/2000/svg">
    <path fill-rule="evenodd" clip-rule="evenodd"
        d="M6.00178 5.81825C5.68834 5.81825 5.38774 5.94276 5.1661 6.16439C4.94447 6.38603 4.81996 6.68663 4.81996 7.00007V19.0001C4.81996 19.3135 4.94447 19.6141 5.1661 19.8357C5.38774 20.0574 5.68834 20.1819 6.00178 20.1819H18.0018C18.3152 20.1819 18.6158 20.0574 18.8374 19.8357C19.0591 19.6141 19.1836 19.3135 19.1836 19.0001V7.00007C19.1836 6.68663 19.0591 6.38603 18.8374 6.16439C18.6158 5.94276 18.3152 5.81825 18.0018 5.81825H6.00178ZM4.00902 5.00731C4.53753 4.4788 5.25435 4.18188 6.00178 4.18188H18.0018C18.7492 4.18188 19.466 4.4788 19.9945 5.00731C20.523 5.53582 20.82 6.25264 20.82 7.00007V19.0001C20.82 19.7475 20.523 20.4643 19.9945 20.9928C19.466 21.5213 18.7492 21.8182 18.0018 21.8182H6.00178C5.25435 21.8182 4.53753 21.5213 4.00902 20.9928C3.48051 20.4643 3.18359 19.7475 3.18359 19.0001V7.00007C3.18359 6.25264 3.48051 5.53582 4.00902 5.00731Z" />
    <path fill-rule="evenodd" clip-rule="evenodd"
        d="M16.0018 2.18188C16.4536 2.18188 16.82 2.5482 16.82 3.00007V7.00007C16.82 7.45194 16.4536 7.81825 16.0018 7.81825C15.5499 7.81825 15.1836 7.45194 15.1836 7.00007V3.00007C15.1836 2.5482 15.5499 2.18188 16.0018 2.18188Z" />
    <path fill-rule="evenodd" clip-rule="evenodd"
        d="M8.00178 2.18188C8.45364 2.18188 8.81996 2.5482 8.81996 3.00007V7.00007C8.81996 7.45194 8.45364 7.81825 8.00178 7.81825C7.54991 7.81825 7.18359 7.45194 7.18359 7.00007V3.00007C7.18359 2.5482 7.54991 2.18188 8.00178 2.18188Z" />
    <path fill-rule="evenodd" clip-rule="evenodd"
        d="M3.18359 11.0001C3.18359 10.5482 3.54991 10.1819 4.00178 10.1819H20.0018C20.4536 10.1819 20.82 10.5482 20.82 11.0001C20.82 11.4519 20.4536 11.8182 20.0018 11.8182H4.00178C3.54991 11.8182 3.18359 11.4519 3.18359 11.0001Z" />
    <path fill-rule="evenodd" clip-rule="evenodd"
        d="M10.7161 14.7144C11.0571 14.3734 11.5196 14.1819 12.0018 14.1819C12.484 14.1819 12.9464 14.3734 13.2874 14.7144C13.6284 15.0554 13.82 15.5179 13.82 16.0001C13.82 16.4823 13.6284 16.9447 13.2874 17.2857C12.9464 17.6267 12.484 17.8182 12.0018 17.8182C11.5196 17.8182 11.0571 17.6267 10.7161 17.2857C10.3752 16.9447 10.1836 16.4823 10.1836 16.0001C10.1836 15.5179 10.3752 15.0554 10.7161 14.7144ZM12.0018 15.8182C11.9536 15.8182 11.9073 15.8374 11.8732 15.8715C11.8391 15.9056 11.82 15.9518 11.82 16.0001C11.82 16.0483 11.8391 16.0945 11.8732 16.1286C11.9073 16.1627 11.9536 16.1819 12.0018 16.1819C12.05 16.1819 12.0962 16.1627 12.1303 16.1286C12.1644 16.0945 12.1836 16.0483 12.1836 16.0001C12.1836 15.9518 12.1644 15.9056 12.1303 15.8715C12.0962 15.8374 12.05 15.8182 12.0018 15.8182Z" />
</svg>