<svg viewBox="0 0 18 18" xmlns="http://www.w3.org/2000/svg">
    <path fill-rule="evenodd" clip-rule="evenodd"
        d="M0.916626 4.41663C0.916626 4.00241 1.25241 3.66663 1.66663 3.66663H16.3333C16.7475 3.66663 17.0833 4.00241 17.0833 4.41663C17.0833 4.83084 16.7475 5.16663 16.3333 5.16663H1.66663C1.25241 5.16663 0.916626 4.83084 0.916626 4.41663Z" />
    <path fill-rule="evenodd" clip-rule="evenodd"
        d="M7.16663 7.33337C7.58084 7.33337 7.91663 7.66916 7.91663 8.08337V13.5834C7.91663 13.9976 7.58084 14.3334 7.16663 14.3334C6.75241 14.3334 6.41663 13.9976 6.41663 13.5834V8.08337C6.41663 7.66916 6.75241 7.33337 7.16663 7.33337Z" />
    <path fill-rule="evenodd" clip-rule="evenodd"
        d="M10.8334 7.33337C11.2476 7.33337 11.5834 7.66916 11.5834 8.08337V13.5834C11.5834 13.9976 11.2476 14.3334 10.8334 14.3334C10.4192 14.3334 10.0834 13.9976 10.0834 13.5834V8.08337C10.0834 7.66916 10.4192 7.33337 10.8334 7.33337Z" />
    <path fill-rule="evenodd" clip-rule="evenodd"
        d="M2.52101 3.66926C2.93379 3.63486 3.2963 3.9416 3.3307 4.35438L4.24737 15.3544C4.2491 15.3751 4.24996 15.3959 4.24996 15.4167C4.24996 15.704 4.3641 15.9795 4.56726 16.1827C4.77043 16.3859 5.04598 16.5 5.33329 16.5H12.6666C12.9539 16.5 13.2295 16.3859 13.4327 16.1827C13.6358 15.9795 13.75 15.704 13.75 15.4167C13.75 15.3959 13.7508 15.3751 13.7526 15.3544L14.6692 4.35438C14.7036 3.9416 15.0661 3.63486 15.4789 3.66926C15.8917 3.70366 16.1984 4.06617 16.164 4.47895L15.2497 15.4505C15.2409 16.1234 14.9698 16.7669 14.4933 17.2434C14.0089 17.7278 13.3518 18 12.6666 18H5.33329C4.64815 18 3.99107 17.7278 3.5066 17.2434C3.03012 16.7669 2.75899 16.1234 2.75018 15.4505L1.83588 4.47895C1.80149 4.06617 2.10823 3.70366 2.52101 3.66926Z" />
    <path fill-rule="evenodd" clip-rule="evenodd"
        d="M7.16667 1.5C7.12246 1.5 7.08007 1.51756 7.04882 1.54882C7.01756 1.58007 7 1.62246 7 1.66667V4.41667C7 4.83088 6.66421 5.16667 6.25 5.16667C5.83579 5.16667 5.5 4.83088 5.5 4.41667V1.66667C5.5 1.22464 5.6756 0.800716 5.98816 0.488155C6.30072 0.175595 6.72464 0 7.16667 0H10.8333C11.2754 0 11.6993 0.175595 12.0118 0.488155C12.3244 0.800716 12.5 1.22464 12.5 1.66667V4.41667C12.5 4.83088 12.1642 5.16667 11.75 5.16667C11.3358 5.16667 11 4.83088 11 4.41667V1.66667C11 1.62246 10.9824 1.58007 10.9512 1.54882C10.9199 1.51756 10.8775 1.5 10.8333 1.5H7.16667Z" />
</svg>