<svg viewBox="0 0 22 23" xmlns="http://www.w3.org/2000/svg">
    <path fill-rule="evenodd" clip-rule="evenodd"
        d="M12.8333 2.5C13.2475 2.5 13.5833 2.83579 13.5833 3.25V6.91667C13.5833 6.96087 13.6008 7.00326 13.6321 7.03452C13.6633 7.06577 13.7057 7.08333 13.7499 7.08333H17.4166C17.8308 7.08333 18.1666 7.41912 18.1666 7.83333C18.1666 8.24755 17.8308 8.58333 17.4166 8.58333H13.7499C13.3079 8.58333 12.884 8.40774 12.5714 8.09518C12.2588 7.78262 12.0833 7.35869 12.0833 6.91667V3.25C12.0833 2.83579 12.419 2.5 12.8333 2.5Z" />
    <path fill-rule="evenodd" clip-rule="evenodd"
        d="M6.41659 4C6.12927 4 5.85372 4.11414 5.65055 4.3173C5.44739 4.52047 5.33325 4.79602 5.33325 5.08333V17.9167C5.33325 18.204 5.44739 18.4795 5.65055 18.6827C5.85372 18.8859 6.12927 19 6.41659 19H15.5833C15.8706 19 16.1461 18.8859 16.3493 18.6827C16.5524 18.4795 16.6666 18.204 16.6666 17.9167V8.14399L12.5226 4H6.41659ZM4.58989 3.25664C5.07436 2.77217 5.73144 2.5 6.41659 2.5H12.8333C13.0322 2.5 13.2229 2.57902 13.3636 2.71967L17.9469 7.303C18.0876 7.44366 18.1666 7.63442 18.1666 7.83333V17.9167C18.1666 18.6018 17.8944 19.2589 17.4099 19.7434C16.9255 20.2278 16.2684 20.5 15.5833 20.5H6.41659C5.73144 20.5 5.07436 20.2278 4.58989 19.7434C4.10542 19.2589 3.83325 18.6018 3.83325 17.9167V5.08333C3.83325 4.39819 4.10542 3.74111 4.58989 3.25664Z" />
</svg>