<svg viewBox="0 0 22 22" xmlns="http://www.w3.org/2000/svg">
    <path fill-rule="evenodd" clip-rule="evenodd"
        d="M12.1785 9.82116C12.491 10.1337 12.6666 10.5576 12.6666 10.9997C12.6666 11.4417 12.491 11.8656 12.1785 12.1782C11.8659 12.4907 11.442 12.6663 11 12.6663C10.5579 12.6663 10.134 12.4907 9.82145 12.1782C9.50889 11.8656 9.33329 11.4417 9.33329 10.9997C9.33329 10.5576 9.50889 10.1337 9.82145 9.82116C10.134 9.5086 10.5579 9.33301 11 9.33301C11.442 9.33301 11.8659 9.5086 12.1785 9.82116ZM11.1666 10.9997C11.1666 10.9555 11.1491 10.9131 11.1178 10.8818C11.0866 10.8506 11.0442 10.833 11 10.833C10.9558 10.833 10.9134 10.8506 10.8821 10.8818C10.8509 10.9131 10.8333 10.9555 10.8333 10.9997C10.8333 11.0439 10.8509 11.0863 10.8821 11.1175C10.9134 11.1488 10.9558 11.1663 11 11.1663C11.0442 11.1663 11.0866 11.1488 11.1178 11.1175C11.1491 11.0863 11.1666 11.0439 11.1666 10.9997Z" />
    <path fill-rule="evenodd" clip-rule="evenodd"
        d="M5.76185 9.82116C6.07441 10.1337 6.25 10.5576 6.25 10.9997C6.25 11.4417 6.07441 11.8656 5.76185 12.1782C5.44928 12.4907 5.02536 12.6663 4.58333 12.6663C4.14131 12.6663 3.71738 12.4907 3.40482 12.1782C3.09226 11.8656 2.91667 11.4417 2.91667 10.9997C2.91667 10.5576 3.09226 10.1337 3.40482 9.82116C3.71738 9.5086 4.14131 9.33301 4.58333 9.33301C5.02536 9.33301 5.44928 9.5086 5.76185 9.82116ZM4.75 10.9997C4.75 10.9555 4.73244 10.9131 4.70119 10.8818C4.66993 10.8506 4.62754 10.833 4.58333 10.833C4.53913 10.833 4.49674 10.8506 4.46548 10.8818C4.43423 10.9131 4.41667 10.9555 4.41667 10.9997C4.41667 11.0439 4.43423 11.0863 4.46548 11.1175C4.49674 11.1488 4.53913 11.1663 4.58333 11.1663C4.62754 11.1663 4.66993 11.1488 4.70119 11.1175C4.73244 11.0863 4.75 11.0439 4.75 10.9997Z" />
    <path fill-rule="evenodd" clip-rule="evenodd"
        d="M18.5952 9.82116C18.9078 10.1337 19.0834 10.5576 19.0834 10.9997C19.0834 11.4417 18.9078 11.8656 18.5952 12.1782C18.2827 12.4907 17.8587 12.6663 17.4167 12.6663C16.9747 12.6663 16.5508 12.4907 16.2382 12.1782C15.9256 11.8656 15.75 11.4417 15.75 10.9997C15.75 10.5576 15.9256 10.1337 16.2382 9.82116C16.5508 9.5086 16.9747 9.33301 17.4167 9.33301C17.8587 9.33301 18.2827 9.5086 18.5952 9.82116ZM17.5834 10.9997C17.5834 10.9555 17.5658 10.9131 17.5346 10.8818C17.5033 10.8506 17.4609 10.833 17.4167 10.833C17.3725 10.833 17.3301 10.8506 17.2989 10.8818C17.2676 10.9131 17.25 10.9555 17.25 10.9997C17.25 11.0439 17.2676 11.0863 17.2989 11.1175C17.3301 11.1488 17.3725 11.1663 17.4167 11.1663C17.4609 11.1663 17.5033 11.1488 17.5346 11.1175C17.5658 11.0863 17.5834 11.0439 17.5834 10.9997Z" />
</svg>