<svg viewBox="0 0 22 23" xmlns="http://www.w3.org/2000/svg">
    <path fill-rule="evenodd" clip-rule="evenodd"
        d="M6.42314 6.92363C6.90761 6.43916 7.56469 6.16699 8.24984 6.16699H15.5832C16.2683 6.16699 16.9254 6.43916 17.4099 6.92363C17.8943 7.4081 18.1665 8.06518 18.1665 8.75033V10.5837C18.1665 10.9979 17.8307 11.3337 17.4165 11.3337C17.0023 11.3337 16.6665 10.9979 16.6665 10.5837V8.75033C16.6665 8.46301 16.5524 8.18746 16.3492 7.98429C16.146 7.78113 15.8705 7.66699 15.5832 7.66699H8.24984C7.96252 7.66699 7.68697 7.78113 7.4838 7.98429C7.28064 8.18746 7.1665 8.46301 7.1665 8.75033V16.0837C7.1665 16.371 7.28064 16.6465 7.4838 16.8497C7.68697 17.0529 7.96252 17.167 8.24984 17.167H10.0832C10.4974 17.167 10.8332 17.5028 10.8332 17.917C10.8332 18.3312 10.4974 18.667 10.0832 18.667H8.24984C7.56469 18.667 6.90761 18.3948 6.42314 17.9104C5.93868 17.4259 5.6665 16.7688 5.6665 16.0837V8.75033C5.6665 8.06518 5.93868 7.4081 6.42314 6.92363Z" />
    <path fill-rule="evenodd" clip-rule="evenodd"
        d="M11.3862 11.8867C11.5871 11.6858 11.8842 11.6157 12.1537 11.7055L20.4037 14.4555C20.6915 14.5514 20.8931 14.8113 20.9146 15.1138C20.9361 15.4164 20.7733 15.7022 20.5019 15.8378L17.0589 17.5594L15.3373 21.0024C15.2017 21.2737 14.9159 21.4366 14.6134 21.4151C14.3108 21.3936 14.0509 21.192 13.955 20.9042L11.205 12.6542C11.1152 12.3847 11.1853 12.0876 11.3862 11.8867ZM13.1024 13.6029L14.8055 18.7121L15.829 16.6649C15.9016 16.5198 16.0193 16.4021 16.1644 16.3295L18.2116 15.3059L13.1024 13.6029Z" />
    <path fill-rule="evenodd" clip-rule="evenodd"
        d="M2.75 2.5C3.16421 2.5 3.5 2.83579 3.5 3.25V3.25833C3.5 3.67255 3.16421 4.00833 2.75 4.00833C2.33579 4.00833 2 3.67255 2 3.25833V3.25C2 2.83579 2.33579 2.5 2.75 2.5Z" />
    <path fill-rule="evenodd" clip-rule="evenodd"
        d="M6.4165 2.5C6.83072 2.5 7.1665 2.83579 7.1665 3.25V3.25833C7.1665 3.67255 6.83072 4.00833 6.4165 4.00833C6.00229 4.00833 5.6665 3.67255 5.6665 3.25833V3.25C5.6665 2.83579 6.00229 2.5 6.4165 2.5Z" />
    <path fill-rule="evenodd" clip-rule="evenodd"
        d="M10.0835 2.5C10.4977 2.5 10.8335 2.83579 10.8335 3.25V3.25833C10.8335 3.67255 10.4977 4.00833 10.0835 4.00833C9.66928 4.00833 9.3335 3.67255 9.3335 3.25833V3.25C9.3335 2.83579 9.66928 2.5 10.0835 2.5Z" />
    <path fill-rule="evenodd" clip-rule="evenodd"
        d="M13.75 2.5C14.1642 2.5 14.5 2.83579 14.5 3.25V3.25833C14.5 3.67255 14.1642 4.00833 13.75 4.00833C13.3358 4.00833 13 3.67255 13 3.25833V3.25C13 2.83579 13.3358 2.5 13.75 2.5Z" />
    <path fill-rule="evenodd" clip-rule="evenodd"
        d="M2.75 6.16699C3.16421 6.16699 3.5 6.50278 3.5 6.91699V6.92533C3.5 7.33954 3.16421 7.67533 2.75 7.67533C2.33579 7.67533 2 7.33954 2 6.92533V6.91699C2 6.50278 2.33579 6.16699 2.75 6.16699Z" />
    <path fill-rule="evenodd" clip-rule="evenodd"
        d="M2.75 9.83301C3.16421 9.83301 3.5 10.1688 3.5 10.583V10.5913C3.5 11.0056 3.16421 11.3413 2.75 11.3413C2.33579 11.3413 2 11.0056 2 10.5913V10.583C2 10.1688 2.33579 9.83301 2.75 9.83301Z" />
    <path fill-rule="evenodd" clip-rule="evenodd"
        d="M2.75 13.5C3.16421 13.5 3.5 13.8358 3.5 14.25V14.2583C3.5 14.6725 3.16421 15.0083 2.75 15.0083C2.33579 15.0083 2 14.6725 2 14.2583V14.25C2 13.8358 2.33579 13.5 2.75 13.5Z" />
</svg>