<svg viewBox="0 0 22 22" xmlns="http://www.w3.org/2000/svg">
    <g clip-path="url(#clip0_169_503)">
        <path
            d="M15.992 2.69755L6.84802 11.8416C6.49877 12.1889 6.2219 12.6021 6.03343 13.0572C5.84495 13.5123 5.74862 14.0002 5.75001 14.4928V15.5001C5.75001 15.699 5.82903 15.8897 5.96968 16.0304C6.11034 16.171 6.3011 16.2501 6.50001 16.2501H7.50726C7.99984 16.2514 8.48779 16.1551 8.94288 15.9666C9.39797 15.7782 9.81116 15.5013 10.1585 15.1521L19.3025 6.00805C19.7408 5.56868 19.987 4.97341 19.987 4.3528C19.987 3.7322 19.7408 3.13693 19.3025 2.69755C18.8568 2.27147 18.2639 2.03369 17.6473 2.03369C17.0306 2.03369 16.4378 2.27147 15.992 2.69755ZM18.242 4.94755L9.09802 14.0916C8.67511 14.5119 8.10352 14.7485 7.50726 14.7501H7.25002V14.4928C7.25158 13.8965 7.48819 13.325 7.90851 12.9021L17.0525 3.75805C17.2127 3.60502 17.4257 3.51962 17.6473 3.51962C17.8688 3.51962 18.0818 3.60502 18.242 3.75805C18.3995 3.91594 18.4879 4.12982 18.4879 4.3528C18.4879 4.57579 18.3995 4.78967 18.242 4.94755Z" />
        <path
            d="M19.25 8.73425C19.0511 8.73425 18.8603 8.81327 18.7197 8.95392C18.579 9.09457 18.5 9.28534 18.5 9.48425V13.25H15.5C14.9033 13.25 14.331 13.4871 13.909 13.909C13.4871 14.331 13.25 14.9033 13.25 15.5V18.5H5.75C5.15326 18.5 4.58097 18.2629 4.15901 17.841C3.73705 17.419 3.5 16.8467 3.5 16.25V5.75C3.5 5.15326 3.73705 4.58097 4.15901 4.15901C4.58097 3.73705 5.15326 3.5 5.75 3.5H12.5315C12.7304 3.5 12.9212 3.42098 13.0618 3.28033C13.2025 3.13968 13.2815 2.94891 13.2815 2.75C13.2815 2.55109 13.2025 2.36032 13.0618 2.21967C12.9212 2.07902 12.7304 2 12.5315 2H5.75C4.7558 2.00119 3.80267 2.39666 3.09966 3.09966C2.39666 3.80267 2.00119 4.7558 2 5.75L2 16.25C2.00119 17.2442 2.39666 18.1973 3.09966 18.9003C3.80267 19.6033 4.7558 19.9988 5.75 20H14.2572C14.7499 20.0014 15.238 19.9051 15.6932 19.7166C16.1484 19.5281 16.5618 19.2513 16.9093 18.902L18.9012 16.9085C19.2506 16.5612 19.5275 16.148 19.7161 15.6929C19.9047 15.2378 20.0012 14.7499 20 14.2572V9.48425C20 9.28534 19.921 9.09457 19.7803 8.95392C19.6397 8.81327 19.4489 8.73425 19.25 8.73425ZM15.8488 17.8415C15.5473 18.1423 15.166 18.3505 14.75 18.4415V15.5C14.75 15.3011 14.829 15.1103 14.9697 14.9697C15.1103 14.829 15.3011 14.75 15.5 14.75H18.4437C18.351 15.1651 18.143 15.5457 17.8438 15.848L15.8488 17.8415Z" />
    </g>

</svg>