<svg viewBox="0 0 24 25" xmlns="http://www.w3.org/2000/svg">
    <path
        d="M4 11.5H8C8.26522 11.5 8.51957 11.6054 8.70711 11.7929C8.89464 11.9804 9 12.2348 9 12.5V20.5C9 20.7652 8.89464 21.0196 8.70711 21.2071C8.51957 21.3946 8.26522 21.5 8 21.5H6C5.23479 21.5 4.49849 21.2077 3.94174 20.6827C3.38499 20.1578 3.04989 19.4399 3.005 18.676L3 18.5V12.5C3 12.2348 3.10536 11.9804 3.29289 11.7929C3.48043 11.6054 3.73478 11.5 4 11.5Z" />
    <path
        d="M21 12.5V18.5C21 19.2652 20.7077 20.0015 20.1827 20.5583C19.6578 21.115 18.9399 21.4501 18.176 21.495L18 21.5H12C11.7348 21.5 11.4804 21.3946 11.2929 21.2071C11.1054 21.0196 11 20.7652 11 20.5V12.5C11 12.2348 11.1054 11.9804 11.2929 11.7929C11.4804 11.6054 11.7348 11.5 12 11.5H20C20.2652 11.5 20.5196 11.6054 20.7071 11.7929C20.8946 11.9804 21 12.2348 21 12.5Z" />
    <path
        d="M18 3.5C18.7652 3.49996 19.5015 3.79233 20.0583 4.31728C20.615 4.84224 20.9501 5.56011 20.995 6.324L21 6.5V8.5C21 8.76522 20.8946 9.01957 20.7071 9.20711C20.5196 9.39464 20.2652 9.5 20 9.5H12C11.7348 9.5 11.4804 9.39464 11.2929 9.20711C11.1054 9.01957 11 8.76522 11 8.5V4.5C11 4.23478 11.1054 3.98043 11.2929 3.79289C11.4804 3.60536 11.7348 3.5 12 3.5H18Z" />
    <path
        d="M9 4.5V8.5C9 8.76522 8.89464 9.01957 8.70711 9.20711C8.51957 9.39464 8.26522 9.5 8 9.5H4C3.73478 9.5 3.48043 9.39464 3.29289 9.20711C3.10536 9.01957 3 8.76522 3 8.5V6.5C2.99996 5.73479 3.29233 4.99849 3.81728 4.44174C4.34224 3.88499 5.06011 3.54989 5.824 3.505L6 3.5H8C8.26522 3.5 8.51957 3.60536 8.70711 3.79289C8.89464 3.98043 9 4.23478 9 4.5Z" />
</svg>