<svg viewBox="0 0 24 25" xmlns="http://www.w3.org/2000/svg">
    <path
        d="M12 2.5C12.9889 2.5 13.9556 2.79324 14.7779 3.34265C15.6001 3.89206 16.241 4.67295 16.6194 5.58658C16.9978 6.50021 17.0969 7.50555 16.9039 8.47545C16.711 9.44536 16.2348 10.3363 15.5355 11.0355C14.8363 11.7348 13.9454 12.211 12.9755 12.4039C12.0055 12.5969 11.0002 12.4978 10.0866 12.1194C9.17295 11.741 8.39206 11.1001 7.84265 10.2779C7.29324 9.45561 7 8.48891 7 7.5L7.005 7.283C7.06092 5.99575 7.61161 4.77978 8.54222 3.88866C9.47284 2.99754 10.7115 2.50007 12 2.5Z" />
    <path
        d="M14 14.5C15.3261 14.5 16.5979 15.0268 17.5355 15.9645C18.4732 16.9021 19 18.1739 19 19.5V20.5C19 21.0304 18.7893 21.5391 18.4142 21.9142C18.0391 22.2893 17.5304 22.5 17 22.5H7C6.46957 22.5 5.96086 22.2893 5.58579 21.9142C5.21071 21.5391 5 21.0304 5 20.5V19.5C5 18.1739 5.52678 16.9021 6.46447 15.9645C7.40215 15.0268 8.67392 14.5 10 14.5H14Z" />
</svg>