<svg viewBox="0 0 22 22" xmlns="http://www.w3.org/2000/svg">
    <path fill-rule="evenodd" clip-rule="evenodd"
        d="M12.8333 2C13.2475 2 13.5833 2.33579 13.5833 2.75V6.41667C13.5833 6.46087 13.6009 6.50326 13.6321 6.53452C13.6634 6.56577 13.7058 6.58333 13.75 6.58333H17.4167C17.8309 6.58333 18.1667 6.91912 18.1667 7.33333C18.1667 7.74755 17.8309 8.08333 17.4167 8.08333H13.75C13.308 8.08333 12.884 7.90774 12.5715 7.59518C12.2589 7.28262 12.0833 6.85869 12.0833 6.41667V2.75C12.0833 2.33579 12.4191 2 12.8333 2Z" />
    <path fill-rule="evenodd" clip-rule="evenodd"
        d="M6.41667 3.5C6.12935 3.5 5.8538 3.61414 5.65064 3.8173C5.44747 4.02047 5.33334 4.29602 5.33334 4.58333V17.4167C5.33334 17.704 5.44747 17.9795 5.65064 18.1827C5.8538 18.3859 6.12935 18.5 6.41667 18.5H15.5833C15.8707 18.5 16.1462 18.3859 16.3494 18.1827C16.5525 17.9795 16.6667 17.704 16.6667 17.4167V7.64399L12.5227 3.5H6.41667ZM4.58998 2.75664C5.07445 2.27217 5.73153 2 6.41667 2H12.8333C13.0322 2 13.223 2.07902 13.3637 2.21967L17.947 6.803C18.0877 6.94366 18.1667 7.13442 18.1667 7.33333V17.4167C18.1667 18.1018 17.8945 18.7589 17.41 19.2434C16.9256 19.7278 16.2685 20 15.5833 20H6.41667C5.73153 20 5.07445 19.7278 4.58998 19.2434C4.10551 18.7589 3.83334 18.1018 3.83334 17.4167V4.58333C3.83334 3.89819 4.10551 3.24111 4.58998 2.75664Z" />
    <path fill-rule="evenodd" clip-rule="evenodd"
        d="M7.5 15.5834C7.5 15.1692 7.83579 14.8334 8.25 14.8334H13.75C14.1642 14.8334 14.5 15.1692 14.5 15.5834C14.5 15.9976 14.1642 16.3334 13.75 16.3334H8.25C7.83579 16.3334 7.5 15.9976 7.5 15.5834Z" />
    <path fill-rule="evenodd" clip-rule="evenodd"
        d="M7.5 11.9166C7.5 11.5024 7.83579 11.1666 8.25 11.1666H13.75C14.1642 11.1666 14.5 11.5024 14.5 11.9166C14.5 12.3308 14.1642 12.6666 13.75 12.6666H8.25C7.83579 12.6666 7.5 12.3308 7.5 11.9166Z" />
</svg>