<svg viewBox="0 0 278 80" fill="none" xmlns="http://www.w3.org/2000/svg">
    <path fill-rule="evenodd" clip-rule="evenodd"
        d="M60.4606 29.413C60.4606 47.5722 44.5057 47.5244 33.8946 65.9814C33.7272 45.3692 48.6798 35.0415 49.3221 34.6157L46.5509 30.4404C45.9087 30.8746 32.9163 39.7491 29.6272 57.3904C27.9958 47.6416 28.2087 36.1454 33.7355 27.9945C40.1103 18.766 53.9961 20.0039 60.4606 20.0039V29.4118V29.413ZM60.4606 67.5937C50.8315 67.5937 44.6827 66.839 36.7423 71.5178C41.3961 60.1078 54.7843 51.5897 58.9836 47.3893C61.0945 44.8334 60.4606 40.6365 60.4606 67.5937ZM27.448 69.6891C28.4395 73.1145 26.5905 67.5937 14.7666 67.5937H5.35751V20.0051C11.0781 20.0051 23.0802 18.8761 29.51 25.3059C21.1019 36.5222 23.2117 55.7148 27.448 69.6891ZM32.9079 4.9759C44.5823 4.9759 50.8626 15.0201 49.9321 15.0201C45.9541 15.2091 42.0622 16.0989 37.7936 18.3259C30.7562 23.0287 34.5967 21.7453 27.6992 18.1417C23.9891 16.2879 20.2934 15.2127 15.8777 15.0201C14.964 15.0201 21.2383 4.9759 32.9091 4.9759H32.9079ZM55.8584 14.995C47.1226 -5.00251 18.6896 -4.99414 9.95741 14.995C-2.8173 14.995 0.347374 8.46828 0.347374 70.0993C0.347374 73.441 3.51922 72.6026 14.7666 72.6026C26.7484 72.6026 28.9969 80 33.6781 80V79.9928C33.7929 79.9928 34.2809 79.6998 34.2965 79.6998C42.543 71.4532 51.4127 72.6026 62.9663 72.6026C66.5365 72.6026 65.4696 72.5583 65.4696 17.5006C65.4696 13.9628 60.4941 14.9962 55.8608 14.9962L55.8584 14.995Z"
        fill="white" />
    <path fill-rule="evenodd" clip-rule="evenodd"
        d="M80.3852 7.73778H83.9231L88.9942 18.7771L94.0893 7.73778H97.6044V24.2261H94.1837V14.8613L89.8195 24.2261H88.1677L83.8274 14.8613V24.2261H80.384V7.73778H80.3852ZM105.624 7.73778H109.139L115.719 24.2261H112.063L110.648 20.6405H104.114L102.699 24.2261H99.0193L105.624 7.73778ZM109.705 17.7856L107.37 11.5112L105.034 17.7856H109.705ZM117.701 7.73778H121.287V14.9079L127.514 7.73778H131.784L124.802 15.781L132.256 24.225H127.986L121.287 16.6529V24.225H117.701V7.73659V7.73778ZM137.349 10.7338H132.538V7.73778H145.747V10.7338H140.935V24.2261H137.349V10.7338ZM150.512 7.73778H154.027L160.607 24.2261H156.951L155.536 20.6405H149.002L147.587 24.2261H143.907L150.512 7.73778ZM154.592 17.7856L152.258 11.5112L149.922 17.7856H154.592ZM162.589 7.73778H170.68C172.237 7.73778 173.456 8.12291 174.336 8.89315C175.217 9.66338 175.657 10.7805 175.657 12.242C175.657 12.9812 175.483 13.6533 175.138 14.2585C174.792 14.8637 174.32 15.3313 173.723 15.6614C174.541 15.9604 175.153 16.4125 175.562 17.0177C175.971 17.6229 176.176 18.4135 176.176 19.3882C176.176 20.3786 175.952 21.2397 175.504 21.9716C175.055 22.7024 174.443 23.261 173.664 23.6461C172.886 24.0312 172.024 24.2238 171.081 24.2238H162.589V7.73539V7.73778ZM169.996 14.4367C170.625 14.4367 171.12 14.2788 171.483 13.9655C171.844 13.6509 172.026 13.1474 172.026 12.4561C172.026 11.7014 171.849 11.1823 171.495 10.8989C171.141 10.6154 170.602 10.4743 169.879 10.4743H166.176V14.4367H169.997H169.996ZM170.209 21.4896C170.979 21.4896 171.565 21.3366 171.966 21.0292C172.367 20.723 172.567 20.1836 172.567 19.4134C172.567 18.6264 172.359 18.0607 171.942 17.715C171.526 17.3694 170.907 17.1959 170.091 17.1959H166.175V21.4885H170.209V21.4896ZM186.626 24.5802C184.864 24.5802 183.308 24.2297 181.955 23.5301C180.602 22.8304 179.557 21.8353 178.818 20.546C178.079 19.2567 177.709 17.7389 177.709 15.9939C177.709 14.2489 178.079 12.7264 178.818 11.4299C179.557 10.1322 180.602 9.13354 181.955 8.43387C183.308 7.7342 184.864 7.38376 186.626 7.38376C187.82 7.38376 188.878 7.50576 189.799 7.74975C190.718 7.99374 191.564 8.37526 192.334 8.89434V12.315C191.643 11.7492 190.852 11.3366 189.964 11.0771C189.075 10.8175 188.064 10.6884 186.933 10.6884C185.879 10.6884 184.932 10.9049 184.09 11.3366C183.249 11.7696 182.584 12.3867 182.096 13.1881C181.609 13.9906 181.365 14.9259 181.365 15.9951C181.365 17.0799 181.589 18.0272 182.038 18.8381C182.486 19.6478 183.119 20.2733 183.937 20.7134C184.755 21.1536 185.699 21.3736 186.768 21.3736C187.743 21.3736 188.592 21.2002 189.315 20.8546V17.6696H186.649V15.0275H192.783V22.9763C191.225 24.0456 189.173 24.5802 186.626 24.5802ZM200.92 7.73778H204.435L211.016 24.2261H207.36L205.945 20.6405H199.411L197.996 24.2261H194.316L200.92 7.73778ZM205.001 17.7856L202.667 11.5112L200.331 17.7856H205.001ZM220.145 24.579C218.383 24.579 216.827 24.2285 215.475 23.5289C214.122 22.8292 213.077 21.8341 212.338 20.5448C211.598 19.2555 211.229 17.7377 211.229 15.9927C211.229 14.2477 211.598 12.7252 212.338 11.4287C213.077 10.131 214.122 9.13235 215.475 8.43267C216.827 7.733 218.383 7.38257 220.145 7.38257C222.425 7.38257 224.328 7.90164 225.854 8.93978V12.3365C225.163 11.7552 224.372 11.3342 223.483 11.0747C222.595 10.8152 221.584 10.686 220.453 10.686C218.739 10.686 217.382 11.162 216.384 12.1128C215.385 13.0637 214.886 14.3578 214.886 15.9927C214.886 17.6444 215.39 18.9445 216.396 19.8966C217.402 20.8486 218.754 21.3234 220.453 21.3234C221.616 21.3234 222.646 21.1859 223.543 20.9108C224.439 20.6357 225.273 20.1908 226.044 19.5784V22.9751C224.597 24.0444 222.632 24.579 220.146 24.579H220.145ZM228.047 7.73659H231.633V14.341H238.827V7.73659H242.413V24.225H238.827V17.3131H231.633V24.225H228.047V7.73659ZM250.998 7.73659H254.513L261.093 24.225H257.437L256.022 20.6393H249.488L248.074 24.225H244.393L250.998 7.73659ZM255.079 17.7844L252.744 11.51L250.408 17.7844H255.079ZM80.3852 31.7963H84.2065L88.7359 43.5197L93.2879 31.7963H97.0853L90.5048 48.2847H86.9897L80.3852 31.7963ZM102.015 31.7963H105.53L112.111 48.2847H108.455L107.04 44.699H100.506L99.091 48.2847H95.4109L102.015 31.7963ZM106.096 41.8441L103.761 35.5697L101.426 41.8441H106.096ZM122.348 31.7963H125.886L130.957 42.8356L136.052 31.7963H139.567V48.2847H136.146V38.9198L131.782 48.2847H130.13L125.79 38.9198V48.2847H122.346V31.7963H122.348ZM147.586 31.7963H151.101L157.682 48.2847H154.026L152.611 44.699H146.077L144.662 48.2847H140.982L147.586 31.7963ZM151.667 41.8441L149.332 35.5697L146.997 41.8441H151.667ZM159.664 31.7963H163.249V38.9665L169.477 31.7963H173.747L166.764 39.8395L174.218 48.2835H169.948L163.249 40.7114V48.2835H159.664V31.7951V31.7963ZM179.312 34.7923H174.5V31.7963H187.709V34.7923H182.898V48.2847H179.312V34.7923ZM192.474 31.7963H195.989L202.57 48.2847H198.913L197.499 44.699H190.965L189.55 48.2847H185.87L192.474 31.7963ZM196.555 41.8441L194.22 35.5697L191.884 41.8441H196.555ZM204.551 31.7963H212.643C214.2 31.7963 215.419 32.1814 216.299 32.9517C217.179 33.7219 217.619 34.839 217.619 36.3005C217.619 37.0397 217.446 37.7118 217.1 38.317C216.755 38.9222 216.282 39.3898 215.685 39.7199C216.503 40.0189 217.116 40.471 217.525 41.0762C217.934 41.6814 218.138 42.472 218.138 43.4468C218.138 44.4371 217.915 45.2982 217.466 46.0302C217.018 46.7609 216.405 47.3195 215.627 47.7046C214.848 48.0897 213.987 48.2823 213.043 48.2823H204.551V31.7939V31.7963ZM211.958 38.4952C212.588 38.4952 213.083 38.3373 213.445 38.024C213.806 37.7094 213.988 37.2059 213.988 36.5146C213.988 35.7599 213.811 35.2408 213.457 34.9574C213.103 34.6739 212.565 34.5328 211.841 34.5328H208.138V38.4952H211.96H211.958ZM212.171 45.5482C212.942 45.5482 213.528 45.3951 213.928 45.0877C214.329 44.7815 214.53 44.2421 214.53 43.4719C214.53 42.6849 214.322 42.1192 213.904 41.7735C213.488 41.4279 212.87 41.2544 212.053 41.2544H208.137V45.547H212.171V45.5482ZM85.1969 58.7404H80.3853V55.7444H93.5942V58.7404H88.7826V72.2328H85.1969V58.7404ZM98.3591 55.7444H101.874L108.455 72.2328H104.799L103.384 68.6471H96.8497L95.4348 72.2328H91.7547L98.3591 55.7444ZM102.44 65.7922L100.105 59.5179L97.7695 65.7922H102.44ZM116.923 55.7444H120.508V69.2367H128.056V72.2328H116.923V55.7444ZM129.59 55.7444H133.175V72.2328H129.59V55.7444ZM135.652 55.7444H139.19L144.261 66.7837L149.356 55.7444H152.871V72.2328H149.451V62.8679L145.087 72.2328H143.435L139.094 62.8679V72.2328H135.651V55.7444H135.652ZM155.348 55.7444H158.934V72.2328H155.348V55.7444ZM169.195 55.7444H173.016L177.545 67.4678L182.097 55.7444H185.895L179.314 72.2328H175.799L169.195 55.7444ZM190.825 55.7444H194.34L200.92 72.2328H197.264L195.849 68.6471H189.315L187.901 72.2328H184.22L190.825 55.7444ZM194.906 65.7922L192.571 59.5179L190.235 65.7922H194.906ZM202.077 69.8491L210.144 58.7392H202.29V55.7432H214.579V58.1496L206.56 69.2355H215.051V72.2316H202.078V69.8491H202.077ZM217.055 55.7432H220.64V72.2316H217.055V55.7432ZM223.117 55.7432H230.265C232.137 55.7432 233.595 56.2109 234.64 57.1461C235.685 58.0814 236.209 59.4305 236.209 61.1911C236.209 62.4182 235.926 63.4599 235.36 64.3163C234.794 65.1738 233.992 65.7982 232.954 66.1917L236.091 72.2304H232.411L229.509 66.6402H226.702V72.2304H223.116V55.742L223.117 55.7432ZM229.627 63.6453C230.539 63.6453 231.259 63.4492 231.786 63.0557C232.312 62.6622 232.577 62.0415 232.577 61.1923C232.577 60.2965 232.317 59.6626 231.798 59.293C231.279 58.9234 230.555 58.7392 229.629 58.7392H226.703V63.6453H229.629H229.627ZM238.214 55.7432H241.799V69.2355H249.347V72.2316H238.214V55.7432ZM250.881 55.7432H254.466V72.2316H250.881V55.7432ZM265.387 72.5856C263.625 72.5856 262.069 72.2352 260.717 71.5355C259.364 70.8358 258.319 69.8407 257.58 68.5514C256.84 67.2621 256.471 65.7444 256.471 63.9994C256.471 62.2544 256.84 60.7318 257.58 59.4353C258.319 58.1376 259.364 57.139 260.717 56.4393C262.069 55.7396 263.625 55.3892 265.387 55.3892C266.582 55.3892 267.639 55.5112 268.56 55.7552C269.48 55.9992 270.326 56.3807 271.096 56.8998V60.3204C270.405 59.7547 269.614 59.342 268.725 59.0825C267.837 58.823 266.826 58.6938 265.695 58.6938C264.641 58.6938 263.694 58.9103 262.852 59.342C262.011 59.775 261.346 60.3921 260.858 61.1935C260.371 61.996 260.127 62.9313 260.127 64.0006C260.127 65.0853 260.351 66.0326 260.799 66.8435C261.248 67.6532 261.881 68.2787 262.699 68.7189C263.517 69.159 264.46 69.3791 265.53 69.3791C266.504 69.3791 267.353 69.2056 268.077 68.86V65.675H265.411V63.033H271.544V70.9817C269.987 72.051 267.935 72.5856 265.387 72.5856ZM273.549 55.7432H277.135V72.2316H273.549V55.7432ZM111.5 55.3892H114.92L113.009 60.0597H109.967L111.5 55.3892Z"
        fill="white" />
</svg>