<svg viewBox="0 0 22 22" xmlns="http://www.w3.org/2000/svg">
    <path fill-rule="evenodd" clip-rule="evenodd"
        d="M2.75664 3.67363C3.24111 3.18916 3.89819 2.91699 4.58333 2.91699H11C11.6851 2.91699 12.3422 3.18916 12.8267 3.67363C13.3112 4.1581 13.5833 4.81518 13.5833 5.50033V7.33366C13.5833 7.74787 13.2475 8.08366 12.8333 8.08366C12.4191 8.08366 12.0833 7.74787 12.0833 7.33366V5.50033C12.0833 5.21301 11.9692 4.93746 11.766 4.73429C11.5629 4.53113 11.2873 4.41699 11 4.41699H4.58333C4.29602 4.41699 4.02047 4.53113 3.8173 4.73429C3.61414 4.93746 3.5 5.21301 3.5 5.50033V16.5003C3.5 16.7876 3.61414 17.0632 3.8173 17.2664C4.02047 17.4695 4.29602 17.5837 4.58333 17.5837H11C11.2873 17.5837 11.5629 17.4695 11.766 17.2664C11.9692 17.0632 12.0833 16.7876 12.0833 16.5003V14.667C12.0833 14.2528 12.4191 13.917 12.8333 13.917C13.2475 13.917 13.5833 14.2528 13.5833 14.667V16.5003C13.5833 17.1855 13.3112 17.8425 12.8267 18.327C12.3422 18.8115 11.6851 19.0837 11 19.0837H4.58333C3.89819 19.0837 3.24111 18.8115 2.75664 18.327C2.27217 17.8425 2 17.1855 2 16.5003V5.50033C2 4.81518 2.27217 4.1581 2.75664 3.67363Z" />
    <path fill-rule="evenodd" clip-rule="evenodd"
        d="M15.9697 7.71967C16.2626 7.42678 16.7374 7.42678 17.0303 7.71967L19.7803 10.4697C19.9948 10.6842 20.059 11.0068 19.9429 11.287C19.8268 11.5673 19.5533 11.75 19.25 11.75H8.25C7.83579 11.75 7.5 11.4142 7.5 11C7.5 10.5858 7.83579 10.25 8.25 10.25H17.4393L15.9697 8.78033C15.6768 8.48744 15.6768 8.01256 15.9697 7.71967Z" />
    <path fill-rule="evenodd" clip-rule="evenodd"
        d="M19.7803 10.4697C20.0732 10.7626 20.0732 11.2374 19.7803 11.5303L17.0303 14.2803C16.7374 14.5732 16.2626 14.5732 15.9697 14.2803C15.6768 13.9874 15.6768 13.5126 15.9697 13.2197L18.7197 10.4697C19.0126 10.1768 19.4874 10.1768 19.7803 10.4697Z" />
</svg>