<svg viewBox="0 0 402 80" fill="none" xmlns="http://www.w3.org/2000/svg">
    <path
        d="M29.397 30.3248L0.487366 15.1374L29.397 0L58.3067 15.1374L29.397 30.3248ZM7.04158 15.1374L29.397 26.8777L51.7525 15.1374L29.397 3.44714L7.04158 15.1374Z"
        fill="white" />
    <path
        d="M58.7129 20.6833V55.9542L29.4983 71.4912L0.0806274 55.9542V20.6833L3.17991 22.332V54.1057L29.4983 68.0441L55.6136 54.1556V22.332L58.7129 20.6833Z"
        fill="white" />
    <path d="M29.4974 78.735L2.31525 64.3969L2.36605 60.9498L29.4974 75.2879L56.4255 60.9498V64.4468L29.4974 78.735Z"
        fill="white" />
    <path d="M9.93711 25.4789V53.4057L6.83783 51.7072V23.8802L9.93711 25.4789Z" fill="white" />
    <path d="M51.7017 24.0303V51.5075L48.6024 53.4059V25.6289L51.7017 24.0303Z" fill="white" />
    <path
        d="M29.3967 32.2729L14.2051 58.1015H17.6601L19.4891 55.004H24.1634L25.8909 52.0564H21.2166L29.3967 38.118L32.3943 43.2138L23.6554 58.0515H27.1102L28.9902 54.8542H39.2533L41.1332 58.0515H44.5882L29.3967 32.2729ZM30.7176 51.9565L34.1218 46.2114L37.5258 51.9565H30.7176Z"
        fill="white" />
    <path
        d="M79.1405 21.393H76.2221L75.7172 23.6173H74.045L76.8216 12.5743H78.541L81.3175 23.6173H79.6612L79.1405 21.393ZM78.8092 19.91L78.1151 16.9442C77.9574 16.2081 77.8207 15.4192 77.705 14.5778H77.6576C77.5209 15.5771 77.3842 16.3658 77.2475 16.9442L76.5691 19.91H78.8092Z"
        fill="white" />
    <path
        d="M83.2191 23.7913C82.9352 23.7913 82.7038 23.7071 82.525 23.5388C82.3462 23.36 82.2568 23.1235 82.2568 22.829C82.2568 22.5449 82.3462 22.3189 82.525 22.1506C82.7038 21.9718 82.9352 21.8824 83.2191 21.8824C83.5031 21.8824 83.7344 21.9718 83.9132 22.1506C84.092 22.3189 84.1814 22.5449 84.1814 22.829C84.1814 23.1235 84.092 23.36 83.9132 23.5388C83.7344 23.7071 83.5031 23.7913 83.2191 23.7913Z"
        fill="white" />
    <path
        d="M90.2133 21.393H87.2948L86.7901 23.6173H85.1178L87.8943 12.5743H89.6138L92.3903 23.6173H90.7339L90.2133 21.393ZM89.882 19.91L89.1879 16.9442C89.0302 16.2081 88.8934 15.4192 88.7777 14.5778H88.7304C88.5937 15.5771 88.457 16.3658 88.3202 16.9442L87.6419 19.91H89.882Z"
        fill="white" />
    <path
        d="M92.4257 12.5743H94.0979L95.423 18.6638C95.5492 19.2422 95.6965 20.0257 95.8648 21.0144C95.8963 21.1511 95.9331 21.3457 95.9751 21.598H96.0382C96.2801 20.2413 96.4643 19.2633 96.5905 18.6638L97.9313 12.5743H99.5878L96.8744 23.6173H95.139L92.4257 12.5743Z"
        fill="white" />
    <path d="M106.321 22.1029V23.6173H101.068V12.5743H102.661V22.1029H106.321Z" fill="white" />
    <path
        d="M110.851 23.8217C109.8 23.8217 108.974 23.4957 108.374 22.8437C107.775 22.1811 107.475 21.2713 107.475 20.1144V16.0759C107.475 14.919 107.775 14.0145 108.374 13.3624C108.974 12.6999 109.8 12.3685 110.851 12.3685C111.903 12.3685 112.729 12.6999 113.328 13.3624C113.928 14.0145 114.227 14.919 114.227 16.0759V20.1144C114.227 21.2713 113.928 22.1811 113.328 22.8437C112.729 23.4957 111.903 23.8217 110.851 23.8217ZM110.851 22.2599C111.419 22.2599 111.85 22.0759 112.145 21.7078C112.439 21.3397 112.587 20.8086 112.587 20.1144V16.0759C112.587 15.3817 112.439 14.8507 112.145 14.4825C111.85 14.1144 111.419 13.9304 110.851 13.9304C110.283 13.9304 109.852 14.1144 109.558 14.4825C109.263 14.8507 109.116 15.3817 109.116 16.0759V20.1144C109.116 20.8086 109.263 21.3397 109.558 21.7078C109.852 22.0759 110.283 22.2599 110.851 22.2599Z"
        fill="white" />
    <path
        d="M116.378 12.5743H117.971L120.511 18.2063C120.7 18.627 121.037 19.4368 121.521 20.6358L121.568 20.6043C121.505 20.0679 121.452 19.4368 121.41 18.7112C121.368 17.9855 121.347 17.3754 121.347 16.8812V12.5743H122.925V23.6173H121.331L118.87 18.2063C118.418 17.081 118.066 16.187 117.813 15.5244L117.766 15.556C117.819 16.1029 117.861 16.7444 117.892 17.4806C117.934 18.2063 117.955 18.8321 117.955 19.3579V23.6173H116.378V12.5743Z"
        fill="white" />
    <path d="M125.381 12.5743H126.974V23.6173H125.381V12.5743Z" fill="white" />
    <path
        d="M131.048 19.989L128.366 12.5743H130.022L131.269 16.2501C131.531 17.0389 131.716 17.6173 131.821 17.9855H131.851L132.42 16.2186L133.651 12.5743H135.323L132.641 19.989V23.6173H131.048V19.989Z"
        fill="white" />
    <path
        d="M140.357 12.5743H141.95L144.49 18.2063C144.679 18.627 145.016 19.4368 145.5 20.6358L145.548 20.6043C145.484 20.0679 145.431 19.4368 145.389 18.7112C145.347 17.9855 145.327 17.3754 145.327 16.8812V12.5743H146.904V23.6173H145.31L142.85 18.2063C142.397 17.081 142.046 16.187 141.793 15.5244L141.745 15.556C141.798 16.1029 141.84 16.7444 141.872 17.4806C141.914 18.2063 141.935 18.8321 141.935 19.3579V23.6173H140.357V12.5743Z"
        fill="white" />
    <path
        d="M152.42 23.8217C151.369 23.8217 150.543 23.4957 149.944 22.8437C149.345 22.1811 149.045 21.2713 149.045 20.1144V16.0759C149.045 14.919 149.345 14.0145 149.944 13.3624C150.543 12.6999 151.369 12.3685 152.42 12.3685C153.472 12.3685 154.298 12.6999 154.898 13.3624C155.497 14.0145 155.797 14.919 155.797 16.0759V20.1144C155.797 21.2713 155.497 22.1811 154.898 22.8437C154.298 23.4957 153.472 23.8217 152.42 23.8217ZM152.42 22.2599C152.988 22.2599 153.42 22.0759 153.714 21.7078C154.009 21.3397 154.156 20.8086 154.156 20.1144V16.0759C154.156 15.3817 154.009 14.8507 153.714 14.4825C153.42 14.1144 152.988 13.9304 152.42 13.9304C151.853 13.9304 151.421 14.1144 151.128 14.4825C150.833 14.8507 150.686 15.3817 150.686 16.0759V20.1144C150.686 20.8086 150.833 21.3397 151.128 21.7078C151.421 22.0759 151.853 22.2599 152.42 22.2599Z"
        fill="white" />
    <path
        d="M166.592 12.5743V23.6173H165.03V19.3107C165.073 17.7646 165.115 16.5762 165.157 15.7453L165.093 15.7137C164.884 16.3027 164.526 17.2703 164.02 18.6164L163.059 21.1248H161.481L160.518 18.6164C160.014 17.2703 159.656 16.3027 159.446 15.7137L159.383 15.7453C159.446 17.2808 159.488 18.4693 159.509 19.3107V23.6173H157.947V12.5743H159.572L161.434 17.0547C161.675 17.6542 161.944 18.3851 162.239 19.2476H162.301C162.596 18.3851 162.863 17.6542 163.106 17.0547L164.968 12.5743H166.592Z"
        fill="white" />
    <path d="M169.06 12.5743H170.654V23.6173H169.06V12.5743Z" fill="white" />
    <path
        d="M173.104 12.5743H175.848C176.921 12.5743 177.757 12.8794 178.357 13.4893C178.956 14.0888 179.256 14.9302 179.256 16.0135V20.1467C179.256 21.2404 178.956 22.0924 178.357 22.7024C177.757 23.3123 176.926 23.6173 175.864 23.6173H173.104V12.5743ZM175.864 22.1029C176.432 22.1029 176.869 21.9347 177.173 21.598C177.488 21.2615 177.647 20.7672 177.647 20.1151V16.045C177.647 15.4035 177.493 14.9197 177.189 14.5937C176.884 14.2571 176.442 14.0888 175.864 14.0888H174.696V22.1029H175.864Z"
        fill="white" />
    <path
        d="M185.284 21.393H182.365L181.86 23.6173H180.188L182.964 12.5743H184.684L187.46 23.6173H185.805L185.284 21.393ZM184.952 19.91L184.258 16.9442C184.1 16.2081 183.963 15.4192 183.848 14.5778H183.801C183.664 15.5771 183.526 16.3658 183.391 16.9442L182.712 19.91H184.952Z"
        fill="white" />
    <path
        d="M191.671 23.7908C190.662 23.7908 189.862 23.491 189.274 22.8917C188.695 22.2922 188.405 21.4402 188.405 20.336V15.8398C188.405 14.7356 188.689 13.889 189.257 13.3C189.836 12.7005 190.63 12.4008 191.639 12.4008C192.629 12.4008 193.401 12.69 193.958 13.2684C194.516 13.8468 194.815 14.6777 194.858 15.761H193.28C193.248 15.13 193.096 14.6671 192.823 14.3727C192.55 14.0782 192.155 13.931 191.639 13.931C190.566 13.931 190.03 14.5725 190.03 15.8556V20.336C190.03 20.988 190.173 21.4718 190.456 21.7873C190.75 22.1028 191.161 22.2605 191.686 22.2605C192.223 22.2605 192.639 22.108 192.933 21.803C193.228 21.4981 193.375 21.0353 193.375 20.4148V19.0265H191.624V17.6067H194.937V20.4148C194.926 21.4876 194.626 22.3184 194.038 22.9074C193.459 23.4964 192.67 23.7908 191.671 23.7908Z"
        fill="white" />
    <path d="M196.83 12.5743H198.424V23.6173H196.83V12.5743Z" fill="white" />
    <path
        d="M207.432 12.5743C208.517 12.5743 209.352 12.8898 209.942 13.521C210.531 14.1414 210.825 15.0144 210.825 16.1398C210.825 17.2966 210.531 18.1853 209.942 18.8058C209.352 19.4264 208.517 19.7366 207.432 19.7366H206.108V23.6173H204.514V12.5743H207.432ZM207.417 18.222C208.017 18.222 208.464 18.0538 208.758 17.7173C209.053 17.3702 209.2 16.8444 209.2 16.1398C209.2 14.7725 208.606 14.0888 207.417 14.0888H206.108V18.222H207.417Z"
        fill="white" />
    <path
        d="M218.008 22.1187V23.6173H212.439V12.5743H217.85V14.0731H214.033V17.2755H217.55V18.7427H214.033V22.1187H218.008Z"
        fill="white" />
    <path
        d="M219.963 12.5743H222.709C223.78 12.5743 224.617 12.8794 225.216 13.4893C225.816 14.0888 226.116 14.9302 226.116 16.0135V20.1467C226.116 21.2404 225.816 22.0924 225.216 22.7024C224.617 23.3123 223.787 23.6173 222.724 23.6173H219.963V12.5743ZM222.724 22.1029C223.291 22.1029 223.728 21.9347 224.033 21.598C224.349 21.2615 224.507 20.7672 224.507 20.1151V16.045C224.507 15.4035 224.354 14.9197 224.049 14.5937C223.743 14.2571 223.303 14.0888 222.724 14.0888H221.557V22.1029H222.724Z"
        fill="white" />
    <path
        d="M232.143 21.393H229.225L228.72 23.6173H227.048L229.825 12.5743H231.544L234.32 23.6173H232.664L232.143 21.393ZM231.812 19.91L231.117 16.9442C230.96 16.2081 230.824 15.4192 230.707 14.5778H230.66C230.523 15.5771 230.387 16.3658 230.25 16.9442L229.572 19.91H231.812Z"
        fill="white" />
    <path
        d="M238.531 23.7908C237.521 23.7908 236.722 23.491 236.133 22.8917C235.554 22.2922 235.266 21.4402 235.266 20.336V15.8398C235.266 14.7356 235.549 13.889 236.118 13.3C236.696 12.7005 237.489 12.4008 238.499 12.4008C239.488 12.4008 240.262 12.69 240.819 13.2684C241.376 13.8468 241.676 14.6777 241.718 15.761H240.141C240.109 15.13 239.957 14.6671 239.682 14.3727C239.409 14.0782 239.015 13.931 238.499 13.931C237.427 13.931 236.89 14.5725 236.89 15.8556V20.336C236.89 20.988 237.032 21.4718 237.317 21.7873C237.611 22.1028 238.022 22.2605 238.547 22.2605C239.083 22.2605 239.498 22.108 239.793 21.803C240.088 21.4981 240.235 21.0353 240.235 20.4148V19.0265H238.484V17.6067H241.797V20.4148C241.787 21.4876 241.487 22.3184 240.898 22.9074C240.319 23.4964 239.53 23.7908 238.531 23.7908Z"
        fill="white" />
    <path
        d="M246.875 23.8217C245.822 23.8217 244.997 23.4957 244.397 22.8437C243.798 22.1811 243.498 21.2713 243.498 20.1144V16.0759C243.498 14.919 243.798 14.0145 244.397 13.3624C244.997 12.6999 245.822 12.3685 246.875 12.3685C247.926 12.3685 248.752 12.6999 249.351 13.3624C249.95 14.0145 250.25 14.919 250.25 16.0759V20.1144C250.25 21.2713 249.95 22.1811 249.351 22.8437C248.752 23.4957 247.926 23.8217 246.875 23.8217ZM246.875 22.2599C247.443 22.2599 247.873 22.0759 248.168 21.7078C248.462 21.3397 248.61 20.8086 248.61 20.1144V16.0759C248.61 15.3817 248.462 14.8507 248.168 14.4825C247.873 14.1144 247.443 13.9304 246.875 13.9304C246.306 13.9304 245.876 14.1144 245.581 14.4825C245.286 14.8507 245.139 15.3817 245.139 16.0759V20.1144C245.139 20.8086 245.286 21.3397 245.581 21.7078C245.876 22.0759 246.306 22.2599 246.875 22.2599Z"
        fill="white" />
    <path
        d="M255.351 23.7908C254.342 23.7908 253.542 23.491 252.952 22.8917C252.375 22.2922 252.085 21.4402 252.085 20.336V15.8398C252.085 14.7356 252.37 13.889 252.937 13.3C253.516 12.7005 254.31 12.4008 255.319 12.4008C256.309 12.4008 257.081 12.69 257.638 13.2684C258.196 13.8468 258.495 14.6777 258.537 15.761H256.96C256.928 15.13 256.776 14.6671 256.503 14.3727C256.229 14.0782 255.835 13.931 255.319 13.931C254.246 13.931 253.71 14.5725 253.71 15.8556V20.336C253.71 20.988 253.853 21.4718 254.136 21.7873C254.43 22.1028 254.841 22.2605 255.366 22.2605C255.903 22.2605 256.319 22.108 256.613 21.803C256.908 21.4981 257.055 21.0353 257.055 20.4148V19.0265H255.304V17.6067H258.616V20.4148C258.606 21.4876 258.306 22.3184 257.717 22.9074C257.139 23.4964 256.35 23.7908 255.351 23.7908Z"
        fill="white" />
    <path d="M265.764 22.1029V23.6173H260.51V12.5743H262.104V22.1029H265.764Z" fill="white" />
    <path
        d="M271.335 21.393H268.417L267.911 23.6173H266.239L269.016 12.5743H270.735L273.512 23.6173H271.855L271.335 21.393ZM271.003 19.91L270.31 16.9442C270.151 16.2081 270.015 15.4192 269.9 14.5778H269.851C269.716 15.5771 269.578 16.3658 269.441 16.9442L268.763 19.91H271.003Z"
        fill="white" />
    <path
        d="M277.576 19.6104H276.582V23.6173H274.988V12.5743H277.844C278.895 12.5743 279.71 12.8794 280.29 13.4893C280.867 14.0888 281.157 14.9354 281.157 16.0293C281.157 16.8812 280.983 17.5963 280.636 18.1748C280.29 18.7532 279.799 19.1582 279.168 19.3895L281.567 23.6173H279.799L277.576 19.6104ZM276.582 18.0959H277.812C278.37 18.0959 278.79 17.9224 279.074 17.5753C279.369 17.2283 279.516 16.7234 279.516 16.0608C279.516 15.4087 279.374 14.9197 279.09 14.5937C278.806 14.2571 278.385 14.0888 277.829 14.0888H276.582V18.0959Z"
        fill="white" />
    <path
        d="M283.19 12.5743H284.783L287.323 18.2063C287.512 18.627 287.849 19.4368 288.333 20.6358L288.381 20.6043C288.317 20.0679 288.264 19.4368 288.222 18.7112C288.18 17.9855 288.16 17.3754 288.16 16.8812V12.5743H289.737V23.6173H288.143L285.683 18.2063C285.23 17.081 284.879 16.187 284.626 15.5244L284.579 15.556C284.631 16.1029 284.673 16.7444 284.705 17.4806C284.747 18.2063 284.768 18.8321 284.768 19.3579V23.6173H283.19V12.5743Z"
        fill="white" />
    <path d="M292.193 12.5743H293.787V23.6173H292.193V12.5743Z" fill="white" />
    <path
        d="M302.18 18.79L301.455 19.8785V23.6173H299.877V12.5743H301.455V17.3702L302.18 16.0766L304.389 12.5743H306.25L303.096 17.386L306.709 23.6173H304.877L302.18 18.79Z"
        fill="white" />
    <path
        d="M312.165 21.393H309.247L308.742 23.6173H307.069L309.846 12.5743H311.566L314.343 23.6173H312.686L312.165 21.393ZM311.834 19.91L311.14 16.9442C310.982 16.2081 310.846 15.4192 310.73 14.5778H310.682C310.546 15.5771 310.409 16.3658 310.272 16.9442L309.594 19.91H311.834Z"
        fill="white" />
    <path
        d="M318.297 23.8217C317.308 23.8217 316.524 23.5326 315.947 22.954C315.368 22.3756 315.073 21.5869 315.063 20.5877H316.688C316.698 21.1451 316.841 21.5658 317.114 21.8498C317.398 22.1337 317.792 22.2757 318.297 22.2757C318.813 22.2757 319.201 22.139 319.464 21.8655C319.738 21.5921 319.874 21.224 319.874 20.7613C319.874 20.3195 319.712 19.9461 319.385 19.6411C319.059 19.3257 318.565 18.9733 317.902 18.5842C317.324 18.2267 316.861 17.9111 316.514 17.6377C316.168 17.3642 315.868 17.0225 315.615 16.6123C315.373 16.2021 315.252 15.7183 315.252 15.1609C315.252 14.635 315.373 14.1618 315.615 13.7411C315.868 13.3098 316.22 12.9733 316.672 12.7314C317.135 12.4895 317.671 12.3685 318.281 12.3685C319.218 12.3685 319.958 12.6472 320.505 13.2047C321.053 13.7621 321.336 14.5141 321.357 15.4607H319.732C319.722 14.9453 319.591 14.5562 319.338 14.2932C319.086 14.0303 318.739 13.8988 318.297 13.8988C317.855 13.8988 317.509 14.0145 317.256 14.246C317.003 14.4773 316.877 14.7927 316.877 15.1925C316.877 15.4974 316.961 15.7656 317.13 15.9969C317.298 16.2284 317.504 16.4335 317.745 16.6123C317.997 16.7806 318.349 17.0014 318.801 17.2748C319.39 17.622 319.864 17.9322 320.222 18.2056C320.579 18.4791 320.884 18.8313 321.137 19.2626C321.389 19.6833 321.515 20.188 321.515 20.777C321.515 21.3345 321.389 21.8446 321.137 22.3073C320.884 22.77 320.51 23.1381 320.017 23.4115C319.533 23.6851 318.96 23.8217 318.297 23.8217Z"
        fill="white" />
    <path
        d="M328.015 17.9381C328.489 18.138 328.862 18.4587 329.135 18.9004C329.409 19.3422 329.545 19.8628 329.545 20.4623C329.545 21.4403 329.257 22.2134 328.678 22.7813C328.1 23.3386 327.327 23.6173 326.359 23.6173H323.204V12.5743H326.202C327.096 12.5743 327.806 12.8478 328.331 13.3947C328.867 13.9311 329.135 14.6568 329.135 15.5718C329.135 16.0976 329.036 16.5709 328.835 16.9916C328.636 17.4017 328.363 17.7173 328.015 17.9381ZM324.797 14.0731V17.244H326.06C327.027 17.244 327.511 16.7024 327.511 15.6191C327.511 15.0933 327.39 14.7041 327.148 14.4518C326.907 14.1993 326.527 14.0731 326.013 14.0731H324.797ZM326.154 22.1187C327.332 22.1187 327.921 21.5665 327.921 20.4623C327.921 19.9048 327.757 19.4789 327.432 19.1844C327.106 18.89 326.659 18.7427 326.091 18.7427H324.797V22.1187H326.154Z"
        fill="white" />
    <path d="M331.298 12.5743H332.891V23.6173H331.298V12.5743Z" fill="white" />
    <path
        d="M336.965 19.989L334.283 12.5743H335.94L337.186 16.2501C337.449 17.0389 337.633 17.6173 337.738 17.9855H337.77L338.338 16.2186L339.568 12.5743H341.241L338.559 19.989V23.6173H336.965V19.989Z"
        fill="white" />
    <path
        d="M77.6258 39.9278H76.6318V43.9348H75.0385V32.8918H77.8939C78.9456 32.8918 79.7607 33.1969 80.3392 33.8068C80.9176 34.4063 81.2068 35.2529 81.2068 36.3467C81.2068 37.1986 81.0332 37.9137 80.6862 38.4922C80.3392 39.0706 79.8501 39.4756 79.219 39.707L81.617 43.9348H79.8501L77.6258 39.9278ZM76.6318 38.4134H77.8623C78.4198 38.4134 78.8405 38.2398 79.1244 37.8927C79.4189 37.5457 79.5661 37.0408 79.5661 36.3782C79.5661 35.7261 79.4241 35.2371 79.1402 34.9111C78.8562 34.5745 78.4355 34.4063 77.8781 34.4063H76.6318V38.4134Z"
        fill="white" />
    <path d="M83.2404 32.8918H84.8338V43.9348H83.2404V32.8918Z" fill="white" />
    <path
        d="M86.2883 32.8918H87.9607L89.2858 38.9812C89.412 39.5597 89.5592 40.3431 89.7274 41.3318C89.7591 41.4685 89.7959 41.6631 89.8379 41.9155H89.901C90.1429 40.5588 90.3269 39.5807 90.4532 38.9812L91.7941 32.8918H93.4505L90.7372 43.9348H89.0018L86.2883 32.8918Z"
        fill="white" />
    <path
        d="M97.9904 44.139C96.9386 44.139 96.1131 43.813 95.5136 43.161C94.9141 42.4984 94.6144 41.5886 94.6144 40.4317V36.3932C94.6144 35.2363 94.9141 34.3318 95.5136 33.6797C96.1131 33.0172 96.9386 32.6859 97.9904 32.6859C99.0421 32.6859 99.8676 33.0172 100.467 33.6797C101.067 34.3318 101.366 35.2363 101.366 36.3932V40.4317C101.366 41.5886 101.067 42.4984 100.467 43.161C99.8676 43.813 99.0421 44.139 97.9904 44.139ZM97.9904 42.5772C98.5583 42.5772 98.9895 42.3932 99.284 42.0251C99.5784 41.657 99.7256 41.1259 99.7256 40.4317V36.3932C99.7256 35.699 99.5784 35.1679 99.284 34.7998C98.9895 34.4317 98.5583 34.2477 97.9904 34.2477C97.4224 34.2477 96.9911 34.4317 96.6967 34.7998C96.4022 35.1679 96.255 35.699 96.255 36.3932V40.4317C96.255 41.1259 96.4022 41.657 96.6967 42.0251C96.9911 42.3932 97.4224 42.5772 97.9904 42.5772Z"
        fill="white" />
    <path
        d="M101.781 44.2818C102.401 44.2818 102.859 44.1241 103.153 43.8085C103.458 43.4931 103.611 42.9462 103.611 42.1679V32.8918H105.204V42.1679C105.204 43.3353 104.91 44.224 104.321 44.8341C103.742 45.4545 102.896 45.7647 101.781 45.7647V44.2818Z"
        fill="white" />
    <path d="M112.874 42.4204V43.9348H107.62V32.8918H109.214V42.4204H112.874Z" fill="white" />
    <path
        d="M118.445 41.7104H115.527L115.022 43.9348H113.349L116.126 32.8918H117.846L120.622 43.9348H118.966L118.445 41.7104ZM118.114 40.2275L117.42 37.2617C117.262 36.5255 117.125 35.7367 117.01 34.8953H116.962C116.825 35.8945 116.689 36.6832 116.552 37.2617L115.874 40.2275H118.114Z"
        fill="white" />
    <path
        d="M122.098 32.8918H123.691L126.231 38.5237C126.421 38.9444 126.757 39.7542 127.242 40.9532L127.289 40.9217C127.225 40.3853 127.173 39.7542 127.131 39.0286C127.09 38.3029 127.068 37.6929 127.068 37.1986V32.8918H128.645V43.9348H127.053L124.591 38.5237C124.138 37.3984 123.786 36.5044 123.534 35.8418L123.486 35.8734C123.539 36.4204 123.581 37.0619 123.613 37.798C123.655 38.5237 123.676 39.1495 123.676 39.6753V43.9348H122.098V32.8918Z"
        fill="white" />
    <path d="M136.481 34.4063H134.178V43.9348H132.554V34.4063H130.265V32.8918H136.481V34.4063Z" fill="white" />
    <path d="M138.009 32.8918H139.603V43.9348H138.009V32.8918Z" fill="white" />
    <path
        d="M144.639 39.9278H143.646V43.9348H142.052V32.8918H144.907C145.959 32.8918 146.773 33.1969 147.352 33.8068C147.931 34.4063 148.22 35.2529 148.22 36.3467C148.22 37.1986 148.047 37.9137 147.699 38.4922C147.352 39.0706 146.863 39.4756 146.232 39.707L148.63 43.9348H146.863L144.639 39.9278ZM143.646 38.4134H144.876C145.434 38.4134 145.854 38.2398 146.137 37.8927C146.432 37.5457 146.579 37.0408 146.579 36.3782C146.579 35.7261 146.437 35.2371 146.154 34.9111C145.869 34.5745 145.449 34.4063 144.891 34.4063H143.646V38.4134Z"
        fill="white" />
    <path d="M150.254 32.8918H151.848V43.9348H150.254V32.8918Z" fill="white" />
    <path
        d="M156.836 44.139C155.848 44.139 155.064 43.8498 154.485 43.2713C153.907 42.6929 153.613 41.9042 153.601 40.905H155.227C155.237 41.4624 155.379 41.8831 155.652 42.1671C155.937 42.451 156.331 42.593 156.836 42.593C157.351 42.593 157.74 42.4563 158.004 42.1828C158.277 41.9094 158.414 41.5413 158.414 41.0785C158.414 40.6368 158.25 40.2634 157.924 39.9584C157.599 39.643 157.104 39.2906 156.442 38.9015C155.863 38.5439 155.401 38.2284 155.053 37.955C154.706 37.6815 154.406 37.3398 154.154 36.9296C153.912 36.5194 153.791 36.0356 153.791 35.4782C153.791 34.9523 153.912 34.4791 154.154 34.0584C154.406 33.6271 154.758 33.2906 155.211 33.0487C155.674 32.8068 156.21 32.6859 156.82 32.6859C157.756 32.6859 158.498 32.9646 159.044 33.522C159.591 34.0794 159.876 34.8314 159.896 35.778H158.272C158.26 35.2625 158.13 34.8735 157.877 34.6105C157.624 34.3476 157.278 34.2161 156.836 34.2161C156.394 34.2161 156.047 34.3318 155.794 34.5632C155.542 34.7946 155.416 35.11 155.416 35.5098C155.416 35.8147 155.5 36.0829 155.669 36.3142C155.836 36.5457 156.042 36.7508 156.283 36.9296C156.536 37.0978 156.889 37.3187 157.341 37.5921C157.93 37.9392 158.403 38.2495 158.761 38.5229C159.118 38.7964 159.424 39.1486 159.675 39.5799C159.928 40.0006 160.055 40.5053 160.055 41.0943C160.055 41.6518 159.928 42.1618 159.675 42.6246C159.424 43.0873 159.05 43.4554 158.555 43.7288C158.071 44.0024 157.498 44.139 156.836 44.139Z"
        fill="white" />
    <path
        d="M168.053 32.8918V43.9348H166.46V39.0917H163.336V43.9348H161.744V32.8918H163.336V37.5929H166.46V32.8918H168.053Z"
        fill="white" />
    <path
        d="M173.163 32.8918H174.834L176.16 38.9812C176.286 39.5597 176.433 40.3431 176.602 41.3318C176.634 41.4685 176.671 41.6631 176.712 41.9155H176.776C177.017 40.5588 177.201 39.5807 177.327 38.9812L178.668 32.8918H180.325L177.611 43.9348H175.876L173.163 32.8918Z"
        fill="white" />
    <path
        d="M185.459 41.7104H182.54L182.036 43.9348H180.363L183.139 32.8918H184.86L187.636 43.9348H185.98L185.459 41.7104ZM185.128 40.2275L184.433 37.2617C184.276 36.5255 184.138 35.7367 184.023 34.8953H183.976C183.839 35.8945 183.703 36.6832 183.566 37.2617L182.888 40.2275H185.128Z"
        fill="white" />
    <path
        d="M194.378 40.3064L191.697 32.8918H193.354L194.599 36.5675C194.862 37.3564 195.046 37.9348 195.152 38.3029H195.184L195.751 36.536L196.982 32.8918H198.654L195.972 40.3064V43.9348H194.378V40.3064Z"
        fill="white" />
    <path
        d="M203.686 41.7104H200.768L200.263 43.9348H198.59L201.368 32.8918H203.087L205.863 43.9348H204.207L203.686 41.7104ZM203.355 40.2275L202.66 37.2617C202.503 36.5255 202.367 35.7367 202.25 34.8953H202.203C202.066 35.8945 201.93 36.6832 201.793 37.2617L201.115 40.2275H203.355Z"
        fill="white" />
    <path
        d="M207.34 32.8918H208.933L211.473 38.5237C211.662 38.9444 211.999 39.7542 212.483 40.9532L212.53 40.9217C212.467 40.3853 212.414 39.7542 212.372 39.0286C212.33 38.3029 212.309 37.6929 212.309 37.1986V32.8918H213.887V43.9348H212.293L209.832 38.5237C209.38 37.3984 209.027 36.5044 208.776 35.8418L208.728 35.8734C208.781 36.4204 208.823 37.0619 208.855 37.798C208.897 38.5237 208.917 39.1495 208.917 39.6753V43.9348H207.34V32.8918Z"
        fill="white" />
    <path
        d="M219.293 44.1084C218.283 44.1084 217.483 43.8085 216.895 43.2092C216.316 42.6097 216.027 41.7578 216.027 40.6535V36.1574C216.027 35.0531 216.311 34.2065 216.879 33.6176C217.458 33.0181 218.251 32.7183 219.261 32.7183C220.25 32.7183 221.022 33.0075 221.58 33.5859C222.137 34.1644 222.437 34.9952 222.48 36.0785H220.902C220.87 35.4475 220.717 34.9847 220.444 34.6902C220.171 34.3957 219.776 34.2485 219.261 34.2485C218.188 34.2485 217.652 34.8901 217.652 36.1731V40.6535C217.652 41.3056 217.794 41.7894 218.077 42.1048C218.372 42.4204 218.782 42.5781 219.308 42.5781C219.845 42.5781 220.26 42.4256 220.555 42.1205C220.849 41.8157 220.997 41.3528 220.997 40.7324V39.344H219.246V37.9242H222.559V40.7324C222.547 41.8051 222.248 42.636 221.66 43.2249C221.081 43.8139 220.292 44.1084 219.293 44.1084Z"
        fill="white" />
    <path d="M224.452 32.8918H226.046V43.9348H224.452V32.8918Z" fill="white" />
    <path
        d="M240.781 32.8918V43.9348H239.219V39.6281C239.261 38.0821 239.304 36.8936 239.346 36.0628L239.283 36.0311C239.072 36.6201 238.715 37.5877 238.21 38.9339L237.247 41.4422H235.67L234.707 38.9339C234.203 37.5877 233.845 36.6201 233.634 36.0311L233.572 36.0628C233.634 37.5983 233.677 38.7867 233.698 39.6281V43.9348H232.136V32.8918H233.761L235.623 37.3721C235.864 37.9716 236.132 38.7025 236.427 39.565H236.49C236.785 38.7025 237.053 37.9716 237.295 37.3721L239.157 32.8918H240.781Z"
        fill="white" />
    <path
        d="M248.819 42.4361V43.9348H243.25V32.8918H248.66V34.3905H244.843V37.5929H248.361V39.0601H244.843V42.4361H248.819Z"
        fill="white" />
    <path d="M256.154 34.4063H253.85V43.9348H252.225V34.4063H249.938V32.8918H256.154V34.4063Z" fill="white" />
    <path
        d="M260.819 44.139C259.768 44.139 258.942 43.813 258.343 43.161C257.742 42.4984 257.443 41.5886 257.443 40.4317V36.3932C257.443 35.2363 257.742 34.3318 258.343 33.6797C258.942 33.0172 259.768 32.6859 260.819 32.6859C261.87 32.6859 262.696 33.0172 263.295 33.6797C263.896 34.3318 264.196 35.2363 264.196 36.3932V40.4317C264.196 41.5886 263.896 42.4984 263.295 43.161C262.696 43.813 261.87 44.139 260.819 44.139ZM260.819 42.5772C261.387 42.5772 261.818 42.3932 262.113 42.0251C262.408 41.657 262.555 41.1259 262.555 40.4317V36.3932C262.555 35.699 262.408 35.1679 262.113 34.7998C261.818 34.4317 261.387 34.2477 260.819 34.2477C260.251 34.2477 259.82 34.4317 259.525 34.7998C259.23 35.1679 259.083 35.699 259.083 36.3932V40.4317C259.083 41.1259 259.23 41.657 259.525 42.0251C259.82 42.3932 260.251 42.5772 260.819 42.5772Z"
        fill="white" />
    <path
        d="M266.345 32.8918H269.091C270.164 32.8918 270.999 33.1969 271.599 33.8068C272.198 34.4063 272.498 35.2477 272.498 36.331V40.4642C272.498 41.5579 272.198 42.4098 271.599 43.0198C270.999 43.6298 270.169 43.9348 269.106 43.9348H266.345V32.8918ZM269.106 42.4204C269.674 42.4204 270.111 42.2521 270.415 41.9155C270.731 41.579 270.889 41.0846 270.889 40.4325V36.3624C270.889 35.7209 270.737 35.2371 270.432 34.9111C270.127 34.5745 269.685 34.4063 269.106 34.4063H267.939V42.4204H269.106Z"
        fill="white" />
    <path d="M274.64 32.8918H276.234V43.9348H274.64V32.8918Z" fill="white" />
    <path
        d="M280.985 39.1075L280.26 40.196V43.9348H278.682V32.8918H280.26V37.6877L280.985 36.3941L283.194 32.8918H285.055L281.901 37.7034L285.514 43.9348H283.683L280.985 39.1075Z"
        fill="white" />
    <path
        d="M290.97 41.7104H288.052L287.547 43.9348H285.874L288.651 32.8918H290.371L293.148 43.9348H291.491L290.97 41.7104ZM290.639 40.2275L289.945 37.2617C289.787 36.5255 289.651 35.7367 289.535 34.8953H289.487C289.351 35.8945 289.214 36.6832 289.077 37.2617L288.399 40.2275H290.639Z"
        fill="white" />
    <path d="M299.877 42.4204V43.9348H294.624V32.8918H296.217V42.4204H299.877Z" fill="white" />
    <path
        d="M305.449 41.7104H302.53L302.025 43.9348H300.353L303.129 32.8918H304.848L307.625 43.9348H305.97L305.449 41.7104ZM305.117 40.2275L304.423 37.2617C304.265 36.5255 304.128 35.7367 304.013 34.8953H303.966C303.829 35.8945 303.691 36.6832 303.556 37.2617L302.877 40.2275H305.117Z"
        fill="white" />
    <path
        d="M311.689 39.9278H310.695V43.9348H309.102V32.8918H311.957C313.008 32.8918 313.823 33.1969 314.402 33.8068C314.98 34.4063 315.27 35.2529 315.27 36.3467C315.27 37.1986 315.097 37.9137 314.749 38.4922C314.402 39.0706 313.914 39.4756 313.282 39.707L315.68 43.9348H313.914L311.689 39.9278ZM310.695 38.4134H311.925C312.482 38.4134 312.904 38.2398 313.187 37.8927C313.482 37.5457 313.629 37.0408 313.629 36.3782C313.629 35.7261 313.487 35.2371 313.204 34.9111C312.919 34.5745 312.499 34.4063 311.942 34.4063H310.695V38.4134Z"
        fill="white" />
    <path
        d="M320.254 44.1084C319.244 44.1084 318.444 43.8085 317.855 43.2092C317.277 42.6097 316.988 41.7578 316.988 40.6535V36.1574C316.988 35.0531 317.272 34.2065 317.84 33.6176C318.419 33.0181 319.213 32.7183 320.222 32.7183C321.21 32.7183 321.983 33.0075 322.541 33.5859C323.098 34.1644 323.398 34.9952 323.44 36.0785H321.863C321.831 35.4475 321.679 34.9847 321.406 34.6902C321.131 34.3957 320.738 34.2485 320.222 34.2485C319.149 34.2485 318.613 34.8901 318.613 36.1731V40.6535C318.613 41.3056 318.756 41.7894 319.039 42.1048C319.333 42.4204 319.743 42.5781 320.269 42.5781C320.806 42.5781 321.222 42.4256 321.516 42.1205C321.811 41.8157 321.957 41.3528 321.957 40.7324V39.344H320.207V37.9242H323.519V40.7324C323.509 41.8051 323.209 42.636 322.62 43.2249C322.042 43.8139 321.253 44.1084 320.254 44.1084Z"
        fill="white" />
    <path
        d="M329.638 41.7104H326.72L326.215 43.9348H324.542L327.319 32.8918H329.039L331.815 43.9348H330.159L329.638 41.7104ZM329.307 40.2275L328.612 37.2617C328.455 36.5255 328.319 35.7367 328.202 34.8953H328.155C328.018 35.8945 327.882 36.6832 327.745 37.2617L327.067 40.2275H329.307Z"
        fill="white" />
    <path
        d="M339.994 44.139C338.942 44.139 338.117 43.813 337.517 43.161C336.917 42.4984 336.617 41.5886 336.617 40.4317V36.3932C336.617 35.2363 336.917 34.3318 337.517 33.6797C338.117 33.0172 338.942 32.6859 339.994 32.6859C341.045 32.6859 341.87 33.0172 342.47 33.6797C343.07 34.3318 343.37 35.2363 343.37 36.3932V40.4317C343.37 41.5886 343.07 42.4984 342.47 43.161C341.87 43.813 341.045 44.139 339.994 44.139ZM339.994 42.5772C340.561 42.5772 340.993 42.3932 341.288 42.0251C341.582 41.657 341.729 41.1259 341.729 40.4317V36.3932C341.729 35.699 341.582 35.1679 341.288 34.7998C340.993 34.4317 340.561 34.2477 339.994 34.2477C339.426 34.2477 338.994 34.4317 338.7 34.7998C338.405 35.1679 338.258 35.699 338.258 36.3932V40.4317C338.258 41.1259 338.405 41.657 338.7 42.0251C338.994 42.3932 339.426 42.5772 339.994 42.5772Z"
        fill="white" />
    <path d="M345.567 32.8918H346.514L346.183 36.5991H344.668L345.567 32.8918Z" fill="white" />
    <path
        d="M350.686 39.9278H349.693V43.9348H348.099V32.8918H350.954C352.006 32.8918 352.822 33.1969 353.399 33.8068C353.978 34.4063 354.267 35.2529 354.267 36.3467C354.267 37.1986 354.094 37.9137 353.746 38.4922C353.399 39.0706 352.911 39.4756 352.279 39.707L354.677 43.9348H352.911L350.686 39.9278ZM349.693 38.4134H350.923C351.481 38.4134 351.901 38.2398 352.185 37.8927C352.479 37.5457 352.626 37.0408 352.626 36.3782C352.626 35.7261 352.485 35.2371 352.201 34.9111C351.916 34.5745 351.496 34.4063 350.939 34.4063H349.693V38.4134Z"
        fill="white" />
    <path
        d="M359.251 44.1084C358.241 44.1084 357.441 43.8085 356.853 43.2092C356.274 42.6097 355.985 41.7578 355.985 40.6535V36.1574C355.985 35.0531 356.269 34.2065 356.837 33.6176C357.416 33.0181 358.21 32.7183 359.219 32.7183C360.208 32.7183 360.98 33.0075 361.538 33.5859C362.095 34.1644 362.395 34.9952 362.438 36.0785H360.86C360.828 35.4475 360.676 34.9847 360.403 34.6902C360.13 34.3957 359.735 34.2485 359.219 34.2485C358.146 34.2485 357.61 34.8901 357.61 36.1731V40.6535C357.61 41.3056 357.752 41.7894 358.036 42.1048C358.33 42.4204 358.74 42.5781 359.266 42.5781C359.803 42.5781 360.218 42.4256 360.513 42.1205C360.808 41.8157 360.955 41.3528 360.955 40.7324V39.344H359.204V37.9242H362.517V40.7324C362.505 41.8051 362.206 42.636 361.618 43.2249C361.039 43.8139 360.25 44.1084 359.251 44.1084Z"
        fill="white" />
    <path
        d="M368.635 41.7104H365.717L365.211 43.9348H363.539L366.316 32.8918H368.036L370.813 43.9348H369.156L368.635 41.7104ZM368.304 40.2275L367.61 37.2617C367.451 36.5255 367.316 35.7367 367.2 34.8953H367.152C367.016 35.8945 366.879 36.6832 366.742 37.2617L366.064 40.2275H368.304Z"
        fill="white" />
    <path d="M377.083 34.4063H374.78V43.9348H373.154V34.4063H370.867V32.8918H377.083V34.4063Z" fill="white" />
    <path d="M378.611 32.8918H380.204V43.9348H378.611V32.8918Z" fill="white" />
    <path
        d="M385.194 44.139C384.204 44.139 383.421 43.8498 382.842 43.2713C382.264 42.6929 381.97 41.9042 381.959 40.905H383.583C383.595 41.4624 383.736 41.8831 384.01 42.1671C384.293 42.451 384.688 42.593 385.194 42.593C385.708 42.593 386.098 42.4563 386.361 42.1828C386.634 41.9094 386.771 41.5413 386.771 41.0785C386.771 40.6368 386.607 40.2634 386.282 39.9584C385.956 39.643 385.462 39.2906 384.799 38.9015C384.22 38.5439 383.757 38.2284 383.411 37.955C383.063 37.6815 382.763 37.3398 382.512 36.9296C382.269 36.5194 382.149 36.0356 382.149 35.4782C382.149 34.9523 382.269 34.4791 382.512 34.0584C382.763 33.6271 383.116 33.2906 383.568 33.0487C384.03 32.8068 384.568 32.6859 385.177 32.6859C386.113 32.6859 386.855 32.9646 387.402 33.522C387.948 34.0794 388.232 34.8314 388.254 35.778H386.629C386.618 35.2625 386.486 34.8735 386.234 34.6105C385.982 34.3476 385.634 34.2161 385.194 34.2161C384.752 34.2161 384.404 34.3318 384.152 34.5632C383.9 34.7946 383.773 35.11 383.773 35.5098C383.773 35.8147 383.858 36.0829 384.025 36.3142C384.194 36.5457 384.399 36.7508 384.641 36.9296C384.893 37.0978 385.246 37.3187 385.698 37.5921C386.287 37.9392 386.761 38.2495 387.117 38.5229C387.476 38.7964 387.78 39.1486 388.033 39.5799C388.286 40.0006 388.411 40.5053 388.411 41.0943C388.411 41.6518 388.286 42.1618 388.033 42.6246C387.78 43.0873 387.407 43.4554 386.913 43.7288C386.429 44.0024 385.855 44.139 385.194 44.139Z"
        fill="white" />
    <path
        d="M396.41 32.8918V43.9348H394.817V39.0917H391.694V43.9348H390.1V32.8918H391.694V37.5929H394.817V32.8918H396.41Z"
        fill="white" />
    <path
        d="M83.6835 53.2092V64.2521H82.1218V59.9455C82.1638 58.3994 82.2059 57.211 82.248 56.3801L82.1849 56.3485C81.9746 56.9375 81.617 57.9051 81.1121 59.2513L80.1498 61.7596H78.5723L77.6099 59.2513C77.1051 57.9051 76.7475 56.9375 76.5371 56.3485L76.4741 56.3801C76.5371 57.9156 76.5793 59.1041 76.6002 59.9455V64.2521H75.0385V53.2092H76.6633L78.5249 57.6895C78.7668 58.289 79.035 59.0199 79.3295 59.8824H79.3926C79.6871 59.0199 79.9553 58.289 80.1972 57.6895L82.0586 53.2092H83.6835Z"
        fill="white" />
    <path d="M86.152 53.2092H87.7452V64.2521H86.152V53.2092Z" fill="white" />
    <path d="M95.448 62.7377V64.2521H90.1947V53.2092H91.788V62.7377H95.448Z" fill="white" />
    <path d="M102.17 62.7377V64.2521H96.9172V53.2092H98.5105V62.7377H102.17Z" fill="white" />
    <path d="M103.64 53.2092H105.233V64.2521H103.64V53.2092Z" fill="white" />
    <path
        d="M109.308 60.6238L106.626 53.2092H108.282L109.528 56.8849C109.791 57.6737 109.975 58.2521 110.081 58.6203H110.112L110.68 56.8534L111.911 53.2092H113.583L110.901 60.6238V64.2521H109.308V60.6238Z"
        fill="white" />
    <path d="M114.07 59.5188H117.935V60.8755H114.07V59.5188Z" fill="white" />
    <path d="M124.489 54.7236H122.186V64.2521H120.561V54.7236H118.274V53.2092H124.489V54.7236Z" fill="white" />
    <path
        d="M129.611 62.0278H126.692L126.187 64.2521H124.515L127.291 53.2092H129.012L131.788 64.2521H130.132L129.611 62.0278ZM129.28 60.5448L128.585 57.579C128.428 56.8429 128.291 56.0541 128.175 55.2127H128.128C127.991 56.2119 127.855 57.0006 127.718 57.579L127.04 60.5448H129.28Z"
        fill="white" />
    <path
        d="M133.265 53.2092H136.009C137.082 53.2092 137.919 53.5142 138.518 54.1241C139.117 54.7236 139.417 55.565 139.417 56.6483V60.7815C139.417 61.8753 139.117 62.7272 138.518 63.3372C137.919 63.9471 137.087 64.2521 136.025 64.2521H133.265V53.2092ZM136.025 62.7377C136.593 62.7377 137.03 62.5695 137.335 62.2328C137.65 61.8963 137.808 61.402 137.808 60.7499V56.6798C137.808 56.0383 137.656 55.5545 137.35 55.2285C137.045 54.8919 136.603 54.7236 136.025 54.7236H134.858V62.7377H136.025Z"
        fill="white" />
    <path
        d="M148.011 60.7492C148.011 61.9272 147.707 62.8369 147.096 63.4785L147.98 64.5354L147.017 65.3715L146.039 64.2042C145.639 64.3724 145.166 64.4565 144.62 64.4565C143.567 64.4565 142.742 64.1305 142.142 63.4785C141.543 62.8159 141.243 61.9061 141.243 60.7492V56.7107C141.243 55.5538 141.543 54.6493 142.142 53.9972C142.742 53.3347 143.567 53.0034 144.62 53.0034C145.681 53.0034 146.512 53.3347 147.112 53.9972C147.712 54.6493 148.011 55.5538 148.011 56.7107V60.7492ZM146.023 62.2006C146.244 61.8325 146.354 61.3487 146.354 60.7492V56.7107C146.354 56.0165 146.207 55.4854 145.912 55.1173C145.618 54.7492 145.187 54.5652 144.62 54.5652C144.051 54.5652 143.62 54.7492 143.326 55.1173C143.041 55.4854 142.9 56.0165 142.9 56.7107V60.7492C142.9 61.4434 143.041 61.9745 143.326 62.3426C143.62 62.7107 144.051 62.8947 144.62 62.8947C144.756 62.8947 144.861 62.8895 144.935 62.879L144.193 61.9955L145.14 61.1436L146.023 62.2006Z"
        fill="white" />
    <path d="M150.161 53.2092H151.755V64.2521H150.161V53.2092Z" fill="white" />
    <path
        d="M160.655 60.7492C160.655 61.9272 160.35 62.8369 159.741 63.4785L160.625 64.5354L159.662 65.3715L158.683 64.2042C158.284 64.3724 157.811 64.4565 157.263 64.4565C156.212 64.4565 155.387 64.1305 154.787 63.4785C154.188 62.8159 153.888 61.9061 153.888 60.7492V56.7107C153.888 55.5538 154.188 54.6493 154.787 53.9972C155.387 53.3347 156.212 53.0034 157.263 53.0034C158.326 53.0034 159.157 53.3347 159.756 53.9972C160.355 54.6493 160.655 55.5538 160.655 56.7107V60.7492ZM158.668 62.2006C158.889 61.8325 158.999 61.3487 158.999 60.7492V56.7107C158.999 56.0165 158.852 55.4854 158.557 55.1173C158.263 54.7492 157.832 54.5652 157.263 54.5652C156.696 54.5652 156.265 54.7492 155.971 55.1173C155.686 55.4854 155.544 56.0165 155.544 56.7107V60.7492C155.544 61.4434 155.686 61.9745 155.971 62.3426C156.265 62.7107 156.696 62.8947 157.263 62.8947C157.401 62.8947 157.506 62.8895 157.58 62.879L156.838 61.9955L157.784 61.1436L158.668 62.2006Z"
        fill="white" />
    <path
        d="M165.867 64.4565C164.815 64.4565 163.989 64.1305 163.389 63.4785C162.79 62.8159 162.49 61.9061 162.49 60.7492V56.7107C162.49 55.5538 162.79 54.6493 163.389 53.9972C163.989 53.3347 164.815 53.0034 165.867 53.0034C166.918 53.0034 167.743 53.3347 168.343 53.9972C168.942 54.6493 169.242 55.5538 169.242 56.7107V60.7492C169.242 61.9061 168.942 62.8159 168.343 63.4785C167.743 64.1305 166.918 64.4565 165.867 64.4565ZM165.867 62.8947C166.434 62.8947 166.866 62.7107 167.161 62.3426C167.454 61.9745 167.601 61.4434 167.601 60.7492V56.7107C167.601 56.0165 167.454 55.4854 167.161 55.1173C166.866 54.7492 166.434 54.5652 165.867 54.5652C165.299 54.5652 164.867 54.7492 164.573 55.1173C164.278 55.4854 164.131 56.0165 164.131 56.7107V60.7492C164.131 61.4434 164.278 61.9745 164.573 62.3426C164.867 62.7107 165.299 62.8947 165.867 62.8947Z"
        fill="white" />
    <path d="M176.603 54.7236H174.3V64.2521H172.674V54.7236H170.387V53.2092H176.603V54.7236Z" fill="white" />
    <path d="M181.85 53.2092H183.444V64.2521H181.85V53.2092Z" fill="white" />
    <path
        d="M185.892 53.2092H187.486L190.025 58.8411C190.215 59.2618 190.551 60.0716 191.035 61.2706L191.082 61.2391C191.02 60.7027 190.966 60.0716 190.924 59.346C190.883 58.6203 190.862 58.0102 190.862 57.516V53.2092H192.439V64.2521H190.846L188.385 58.8411C187.933 57.7158 187.58 56.8218 187.328 56.1592L187.28 56.1908C187.333 56.7377 187.375 57.3793 187.407 58.1154C187.449 58.8411 187.47 59.4669 187.47 59.9927V64.2521H185.892V53.2092Z"
        fill="white" />
    <path
        d="M197.435 64.4565C196.447 64.4565 195.664 64.1674 195.084 63.5888C194.507 63.0104 194.212 62.2217 194.201 61.2225H195.826C195.836 61.7799 195.978 62.2006 196.251 62.4846C196.536 62.7685 196.931 62.9105 197.435 62.9105C197.951 62.9105 198.339 62.7738 198.603 62.5003C198.876 62.2269 199.013 61.8588 199.013 61.3961C199.013 60.9543 198.85 60.5809 198.523 60.2759C198.198 59.9605 197.703 59.6081 197.041 59.219C196.462 58.8614 196 58.5459 195.652 58.2725C195.305 57.999 195.006 57.6573 194.753 57.2471C194.512 56.8369 194.39 56.3531 194.39 55.7957C194.39 55.2698 194.512 54.7966 194.753 54.3759C195.006 53.9446 195.358 53.6081 195.811 53.3662C196.273 53.1243 196.809 53.0034 197.42 53.0034C198.356 53.0034 199.097 53.2822 199.643 53.8395C200.191 54.3969 200.475 55.1489 200.495 56.0955H198.871C198.86 55.5801 198.729 55.191 198.476 54.928C198.224 54.6651 197.877 54.5336 197.435 54.5336C196.993 54.5336 196.646 54.6493 196.394 54.8808C196.141 55.1121 196.015 55.4275 196.015 55.8273C196.015 56.1322 196.099 56.4004 196.268 56.6317C196.436 56.8632 196.641 57.0683 196.883 57.2471C197.135 57.4154 197.488 57.6362 197.94 57.9096C198.53 58.2568 199.002 58.567 199.36 58.8404C199.717 59.1139 200.023 59.4661 200.274 59.8974C200.527 60.3181 200.654 60.8228 200.654 61.4118C200.654 61.9693 200.527 62.4794 200.274 62.9421C200.023 63.4048 199.65 63.7729 199.154 64.0463C198.671 64.3199 198.098 64.4565 197.435 64.4565Z"
        fill="white" />
    <path d="M207.86 54.7236H205.557V64.2521H203.933V54.7236H201.644V53.2092H207.86V54.7236Z" fill="white" />
    <path d="M209.389 53.2092H210.982V64.2521H209.389V53.2092Z" fill="white" />
    <path d="M218.81 54.7236H216.507V64.2521H214.882V54.7236H212.594V53.2092H218.81V54.7236Z" fill="white" />
    <path
        d="M223.46 64.41C222.472 64.41 221.683 64.105 221.095 63.4949C220.516 62.8745 220.226 62.0068 220.226 60.892V53.2092H221.851V60.892C221.851 61.5441 221.994 62.0383 222.277 62.3748C222.561 62.7009 222.956 62.864 223.46 62.864C223.976 62.864 224.376 62.7009 224.659 62.3748C224.944 62.0383 225.086 61.5441 225.086 60.892V53.2092H226.695V60.892C226.695 62.0068 226.405 62.8745 225.827 63.4949C225.248 64.105 224.46 64.41 223.46 64.41Z"
        fill="white" />
    <path d="M234.367 54.7236H232.063V64.2521H230.439V54.7236H228.151V53.2092H234.367V54.7236Z" fill="white" />
    <path d="M235.895 53.2092H237.488V64.2521H235.895V53.2092Z" fill="white" />
</svg>