<svg viewBox="0 0 20 20" xmlns="http://www.w3.org/2000/svg">
    <path
        d="M16.3958 2.29831C15.34 1.41969 14.1136 0.769278 12.794 0.38806C11.4744 0.00684072 10.0901 -0.0969218 8.72835 0.0833103C6.20923 0.410575 3.90908 1.68429 2.29495 3.64582C0.68081 5.60735 -0.126318 8.10966 0.0374492 10.6447C0.201217 13.1797 1.3236 15.5573 3.17671 17.2949C5.02982 19.0324 7.47473 19.9996 10.015 20H15.8333C16.938 19.9987 17.997 19.5592 18.7782 18.7781C19.5593 17.997 19.9987 16.938 20 15.8333V9.42414V9.37164C19.9118 8.00951 19.5467 6.67969 18.927 5.46349C18.3073 4.24729 17.446 3.17028 16.3958 2.29831ZM6.66668 5.83331H10C10.221 5.83331 10.433 5.92111 10.5893 6.07739C10.7455 6.23367 10.8333 6.44563 10.8333 6.66664C10.8333 6.88766 10.7455 7.09962 10.5893 7.2559C10.433 7.41218 10.221 7.49998 10 7.49998H6.66668C6.44567 7.49998 6.2337 7.41218 6.07742 7.2559C5.92114 7.09962 5.83335 6.88766 5.83335 6.66664C5.83335 6.44563 5.92114 6.23367 6.07742 6.07739C6.2337 5.92111 6.44567 5.83331 6.66668 5.83331ZM13.3333 14.1666H6.66668C6.44567 14.1666 6.2337 14.0788 6.07742 13.9226C5.92114 13.7663 5.83335 13.5543 5.83335 13.3333C5.83335 13.1123 5.92114 12.9003 6.07742 12.7441C6.2337 12.5878 6.44567 12.5 6.66668 12.5H13.3333C13.5544 12.5 13.7663 12.5878 13.9226 12.7441C14.0789 12.9003 14.1667 13.1123 14.1667 13.3333C14.1667 13.5543 14.0789 13.7663 13.9226 13.9226C13.7663 14.0788 13.5544 14.1666 13.3333 14.1666ZM13.3333 10.8333H6.66668C6.44567 10.8333 6.2337 10.7455 6.07742 10.5892C5.92114 10.433 5.83335 10.221 5.83335 9.99998C5.83335 9.77896 5.92114 9.567 6.07742 9.41072C6.2337 9.25444 6.44567 9.16664 6.66668 9.16664H13.3333C13.5544 9.16664 13.7663 9.25444 13.9226 9.41072C14.0789 9.567 14.1667 9.77896 14.1667 9.99998C14.1667 10.221 14.0789 10.433 13.9226 10.5892C13.7663 10.7455 13.5544 10.8333 13.3333 10.8333Z" />

</svg>