<svg viewBox="0 0 320 80" xmlns="http://www.w3.org/2000/svg">
    <path fill-rule="evenodd" clip-rule="evenodd"
        d="M0.170776 15.9912V63.9366L16.1329 79.9175V31.9729H48.0565L32.0942 15.9912H0.170776Z" fill="#4A51DD" />
    <path fill-rule="evenodd" clip-rule="evenodd"
        d="M16.1333 47.9544H48.0567V0.00927734L64.0188 15.991V63.9362H32.0946L16.1333 47.9544Z" fill="#4ED89D" />
    <path
        d="M312.446 63.9341L311.762 60.1674H311.419C310.736 61.0351 309.915 61.7881 308.957 62.4281C306.768 63.8885 304.169 64.6197 301.159 64.6197C296.599 64.6197 292.778 62.9421 289.7 59.586C286.622 56.2292 285.083 51.8575 285.083 46.47C285.083 41.0824 286.622 36.71 289.7 33.3539C292.778 29.9978 296.599 28.3202 301.159 28.3202C303.894 28.3202 306.403 29.0732 308.684 30.58C309.64 31.2192 310.439 31.9503 311.077 32.7717H311.419V15.9913H319.97V63.9341H312.446ZM296.096 54.0375C297.737 55.8412 299.881 56.7432 302.528 56.7432C305.172 56.7432 307.316 55.8412 308.957 54.0375C310.598 52.2339 311.419 49.7114 311.419 46.4692C311.419 43.2277 310.598 40.7045 308.957 38.9016C307.316 37.098 305.172 36.196 302.528 36.196C299.881 36.196 297.737 37.098 296.096 38.9016C294.455 40.7052 293.634 43.2277 293.634 46.4692C293.634 49.7114 294.455 52.2339 296.096 54.0375Z"
        fill="white" />
    <path
        d="M246.094 63.9343V29.0042H253.958L254.643 32.4287H254.985C255.533 31.7439 256.308 31.0584 257.311 30.3736C259.408 29.0042 261.827 28.3196 264.561 28.3196C268.529 28.3196 271.802 29.6784 274.379 32.3945C276.955 35.1113 278.243 38.661 278.243 43.0441V63.9335H269.693V43.7287C269.693 41.4917 268.998 39.6766 267.606 38.2836C266.216 36.8906 264.402 36.1946 262.168 36.1946C259.934 36.1946 258.12 36.8906 256.73 38.2836C255.338 39.6766 254.643 41.4909 254.643 43.7287V63.9335H246.094V63.9343Z"
        fill="white" />
    <path
        d="M228.99 53.6614H237.884C237.656 54.529 237.21 55.499 236.551 56.5724C235.889 57.6458 234.955 58.8333 233.745 60.1343C232.536 61.4353 230.883 62.5089 228.786 63.353C226.688 64.1978 224.363 64.62 221.809 64.62C216.656 64.62 212.403 62.9195 209.05 59.5171C205.699 56.1154 204.025 51.7665 204.025 46.4702C204.025 41.1739 205.699 36.8248 209.05 33.4233C212.403 30.0217 216.656 28.3204 221.809 28.3204C226.597 28.3204 230.643 29.9981 233.951 33.3541C237.255 36.7102 238.91 40.8535 238.91 45.7846C238.91 46.1962 238.842 47.0182 238.704 48.2503L238.567 49.2099H212.572C212.937 51.6745 213.964 53.6614 215.651 55.1682C217.339 56.675 219.39 57.4288 221.807 57.4288C223.631 57.4288 225.182 57.0296 226.46 56.2302C227.736 55.4316 228.58 54.5754 228.99 53.6622V53.6614ZM212.574 43.3881H230.359C229.948 41.0599 229.002 39.1652 227.52 37.704C226.04 36.2426 224.133 35.5116 221.809 35.5116C219.345 35.5116 217.327 36.2304 215.755 37.669C214.182 39.1075 213.122 41.0137 212.574 43.3874V43.3881Z"
        fill="white" />
    <path
        d="M168.008 33.4223C171.359 30.0208 175.611 28.3196 180.765 28.3196C185.918 28.3196 190.17 30.0208 193.521 33.4223C196.875 36.824 198.551 41.1728 198.551 46.4694C198.551 51.7657 196.875 56.1146 193.521 59.5162C190.17 62.9179 185.918 64.6191 180.765 64.6191C175.611 64.6191 171.359 62.9187 168.008 59.5162C164.655 56.1146 162.98 51.7657 162.98 46.4694C162.98 41.1728 164.655 36.824 168.008 33.4223ZM174.198 53.8661C175.976 55.7838 178.165 56.7424 180.765 56.7424C183.364 56.7424 185.553 55.7838 187.332 53.8661C189.11 51.9487 189.999 49.483 189.999 46.4694C189.999 43.4555 189.11 40.99 187.332 39.0724C185.553 37.155 183.364 36.1961 180.765 36.1961C178.165 36.1961 175.976 37.1557 174.198 39.0724C172.421 40.99 171.53 43.4555 171.53 46.4694C171.53 49.483 172.419 51.9487 174.198 53.8661Z"
        fill="white" />
    <path
        d="M139.721 63.9342V29.004H146.904L147.588 32.0861H147.93C148.341 31.5381 148.842 31.0363 149.435 30.5793C150.849 29.5294 152.4 29.004 154.087 29.004H160.927V37.223H154.77C150.438 37.223 148.272 39.3918 148.272 43.7293V63.9342H139.721Z"
        fill="white" />
    <path
        d="M95.9419 63.9341V15.9913H117.489C122.005 15.9913 125.642 17.4518 128.4 20.3744C131.159 23.2971 132.539 27.2004 132.539 32.0861C132.539 36.9718 131.16 40.8761 128.4 43.7979C125.641 46.7196 122.004 48.181 117.489 48.181H104.835V63.9333H95.9419V63.9341ZM104.835 39.6204H117.148C119.109 39.6204 120.682 38.9576 121.867 37.6338C123.053 36.31 123.646 34.4607 123.646 32.0861C123.646 29.7116 123.053 27.8624 121.867 26.5386C120.681 25.2137 119.109 24.5519 117.148 24.5519H104.835V39.6196V39.6204Z"
        fill="white" />
</svg>