<svg viewBox="0 0 24 24" xmlns="http://www.w3.org/2000/svg">
    <path fill-rule="evenodd" clip-rule="evenodd"
        d="M8.26884 2.99217C9.45176 2.50219 10.7196 2.25 12 2.25C13.2804 2.25 14.5482 2.50219 15.7312 2.99217C16.9141 3.48216 17.9889 4.20034 18.8943 5.10571C19.7997 6.01108 20.5178 7.08591 21.0078 8.26884C21.4978 9.45176 21.75 10.7196 21.75 12C21.75 13.2804 21.4978 14.5482 21.0078 15.7312C20.5178 16.9141 19.7997 17.9889 18.8943 18.8943C17.9889 19.7997 16.9141 20.5178 15.7312 21.0078C14.5482 21.4978 13.2804 21.75 12 21.75C10.7196 21.75 9.45176 21.4978 8.26884 21.0078C7.08591 20.5178 6.01108 19.7997 5.10571 18.8943C4.20034 17.9889 3.48216 16.9141 2.99217 15.7312C2.50219 14.5482 2.25 13.2804 2.25 12C2.25 10.7196 2.50219 9.45176 2.99217 8.26884C3.48216 7.08591 4.20034 6.01108 5.10571 5.10571C6.01108 4.20034 7.08591 3.48216 8.26884 2.99217ZM12 3.75C10.9166 3.75 9.8438 3.96339 8.84286 4.37799C7.84193 4.7926 6.93245 5.40029 6.16637 6.16637C5.40029 6.93245 4.79259 7.84193 4.37799 8.84286C3.96339 9.8438 3.75 10.9166 3.75 12C3.75 13.0834 3.96339 14.1562 4.37799 15.1571C4.79259 16.1581 5.40029 17.0675 6.16637 17.8336C6.93245 18.5997 7.84193 19.2074 8.84286 19.622C9.8438 20.0366 10.9166 20.25 12 20.25C13.0834 20.25 14.1562 20.0366 15.1571 19.622C16.1581 19.2074 17.0675 18.5997 17.8336 17.8336C18.5997 17.0675 19.2074 16.1581 19.622 15.1571C20.0366 14.1562 20.25 13.0834 20.25 12C20.25 10.9166 20.0366 9.8438 19.622 8.84286C19.2074 7.84193 18.5997 6.93245 17.8336 6.16637C17.0675 5.40029 16.1581 4.7926 15.1571 4.37799C14.1562 3.96339 13.0834 3.75 12 3.75Z" />
    <path fill-rule="evenodd" clip-rule="evenodd"
        d="M9.34835 7.34835C10.0516 6.64509 11.0054 6.25 12 6.25C12.9946 6.25 13.9484 6.64509 14.6517 7.34835C15.3549 8.05161 15.75 9.00544 15.75 10C15.75 10.9946 15.3549 11.9484 14.6517 12.6517C13.9484 13.3549 12.9946 13.75 12 13.75C11.0054 13.75 10.0516 13.3549 9.34835 12.6517C8.64509 11.9484 8.25 10.9946 8.25 10C8.25 9.00544 8.64509 8.05161 9.34835 7.34835ZM12 7.75C11.4033 7.75 10.831 7.98705 10.409 8.40901C9.98705 8.83097 9.75 9.40326 9.75 10C9.75 10.5967 9.98705 11.169 10.409 11.591C10.831 12.0129 11.4033 12.25 12 12.25C12.5967 12.25 13.169 12.0129 13.591 11.591C14.0129 11.169 14.25 10.5967 14.25 10C14.25 9.40326 14.0129 8.83097 13.591 8.40901C13.169 7.98705 12.5967 7.75 12 7.75Z" />
    <path fill-rule="evenodd" clip-rule="evenodd"
        d="M15.9424 17.3933C15.3811 16.9754 14.7 16.7498 14.0002 16.75H9.99992C9.30105 16.7498 8.6205 16.9749 8.05965 17.3919C7.4988 17.8088 7.0873 18.3955 6.8862 19.0648C6.76701 19.4615 6.3488 19.6865 5.95211 19.5673C5.55542 19.4481 5.33045 19.0299 5.44964 18.6332C5.74356 17.655 6.34498 16.7975 7.16469 16.1881C7.98433 15.5787 8.97857 15.2497 9.99992 15.25C9.99999 15.25 9.99985 15.25 9.99992 15.25L13.9997 15.25C13.9997 15.25 13.9996 15.25 13.9997 15.25C15.0223 15.2497 16.018 15.5795 16.8382 16.1902C17.6585 16.8011 18.2598 17.6604 18.5525 18.6403C18.6711 19.0372 18.4455 19.455 18.0486 19.5736C17.6517 19.6922 17.2339 19.4666 17.1153 19.0697C16.915 18.3992 16.5036 17.8113 15.9424 17.3933Z" />
</svg>