<svg viewBox="0 0 18 18" xmlns="http://www.w3.org/2000/svg">
    <path fill-rule="evenodd" clip-rule="evenodd"
        d="M4.71967 4.71967C5.01256 4.42678 5.48744 4.42678 5.78033 4.71967L9.53033 8.46967C9.82322 8.76256 9.82322 9.23744 9.53033 9.53033L5.78033 13.2803C5.48744 13.5732 5.01256 13.5732 4.71967 13.2803C4.42678 12.9874 4.42678 12.5126 4.71967 12.2197L7.93934 9L4.71967 5.78033C4.42678 5.48744 4.42678 5.01256 4.71967 4.71967Z" />
    <path fill-rule="evenodd" clip-rule="evenodd"
        d="M9.21967 4.71967C9.51256 4.42678 9.98744 4.42678 10.2803 4.71967L14.0303 8.46967C14.3232 8.76256 14.3232 9.23744 14.0303 9.53033L10.2803 13.2803C9.98744 13.5732 9.51256 13.5732 9.21967 13.2803C8.92678 12.9874 8.92678 12.5126 9.21967 12.2197L12.4393 9L9.21967 5.78033C8.92678 5.48744 8.92678 5.01256 9.21967 4.71967Z" />
</svg>