<svg viewBox="0 0 18 18" xmlns="http://www.w3.org/2000/svg">
    <path fill-rule="evenodd" clip-rule="evenodd"
        d="M13.2803 4.71967C13.5732 5.01256 13.5732 5.48744 13.2803 5.78033L10.0607 9L13.2803 12.2197C13.5732 12.5126 13.5732 12.9874 13.2803 13.2803C12.9874 13.5732 12.5126 13.5732 12.2197 13.2803L8.46967 9.53033C8.17678 9.23744 8.17678 8.76256 8.46967 8.46967L12.2197 4.71967C12.5126 4.42678 12.9874 4.42678 13.2803 4.71967Z" />
    <path fill-rule="evenodd" clip-rule="evenodd"
        d="M8.78033 4.71967C9.07322 5.01256 9.07322 5.48744 8.78033 5.78033L5.56066 9L8.78033 12.2197C9.07322 12.5126 9.07322 12.9874 8.78033 13.2803C8.48744 13.5732 8.01256 13.5732 7.71967 13.2803L3.96967 9.53033C3.67678 9.23744 3.67678 8.76256 3.96967 8.46967L7.71967 4.71967C8.01256 4.42678 8.48744 4.42678 8.78033 4.71967Z" />
</svg>