<svg viewBox="0 0 18 19" xmlns="http://www.w3.org/2000/svg">
    <path
        d="M17.7802 17.2198L13.3035 12.743C14.5235 11.251 15.1233 9.34709 14.9789 7.42519C14.8345 5.50329 13.9569 3.71042 12.5277 2.41741C11.0985 1.1244 9.22694 0.430189 7.30023 0.478363C5.37352 0.526536 3.53902 1.31341 2.17621 2.67623C0.813389 4.03905 0.0265136 5.87354 -0.0216603 7.80025C-0.0698341 9.72696 0.62438 11.5985 1.91739 13.0277C3.21039 14.4569 5.00327 15.3345 6.92517 15.4789C8.84706 15.6233 10.7509 15.0235 12.243 13.8035L16.7197 18.2803C16.8612 18.4169 17.0506 18.4925 17.2473 18.4908C17.4439 18.4891 17.6321 18.4102 17.7711 18.2711C17.9102 18.1321 17.989 17.944 17.9908 17.7473C17.9925 17.5507 17.9169 17.3612 17.7802 17.2198ZM7.5 14C6.31331 14 5.15327 13.6481 4.16657 12.9888C3.17988 12.3295 2.41085 11.3925 1.95672 10.2961C1.50259 9.19976 1.38377 7.99336 1.61528 6.82948C1.8468 5.66559 2.41824 4.59649 3.25736 3.75738C4.09647 2.91826 5.16557 2.34682 6.32945 2.11531C7.49334 1.8838 8.69974 2.00262 9.7961 2.45674C10.8925 2.91087 11.8295 3.6799 12.4888 4.6666C13.1481 5.65329 13.5 6.81333 13.5 8.00002C13.4982 9.59077 12.8655 11.1159 11.7407 12.2407C10.6158 13.3655 9.09075 13.9982 7.5 14Z" />

</svg>