<svg viewBox="0 0 60 60" xmlns="http://www.w3.org/2000/svg">
    <path
        d="M35 17.5V1.15C37.275 2.025 39.375 3.35 41.15 5.125L49.85 13.85C51.625 15.625 52.95 17.725 53.825 20H37.475C36.1 20 34.975 18.875 34.975 17.5H35ZM55 26.225V47.5C55 54.4 49.4 60 42.5 60H17.5C10.6 60 5 54.4 5 47.5V12.5C5 5.6 10.6 0 17.5 0H28.775C29.175 0 29.575 0.025 30 0.05V17.5C30 21.625 33.375 25 37.5 25H54.95C54.975 25.4 55 25.8 55 26.225ZM33.25 42.5L38.175 36.6C39.05 35.55 38.925 33.975 37.85 33.075C36.775 32.2 35.225 32.325 34.325 33.4L30 38.6L25.675 33.4C24.8 32.35 23.225 32.2 22.15 33.075C21.1 33.95 20.95 35.525 21.825 36.6L26.75 42.5L21.825 48.4C20.95 49.45 21.075 51.025 22.15 51.925C22.625 52.325 23.175 52.5 23.75 52.5C24.475 52.5 25.175 52.2 25.675 51.6L30 46.4L34.325 51.6C34.825 52.2 35.525 52.5 36.25 52.5C36.825 52.5 37.375 52.3 37.85 51.925C38.9 51.05 39.05 49.475 38.175 48.4L33.25 42.5Z" />

</svg>