<svg viewBox="0 0 60 60" xmlns="http://www.w3.org/2000/svg">
    <path
        d="M37.5 20.0004H53.85C52.9771 17.6875 51.6212 15.5875 49.8725 13.8404L41.1625 5.12539C39.4133 3.37871 37.3127 2.02367 35 1.15039V17.5004C35 18.881 36.1193 20.0004 37.5 20.0004Z" />
    <path
        d="M54.9399 25H37.5C33.3579 25 30 21.6421 30 17.5V0.06C29.5974 0.0324609 29.195 0 28.7874 0H17.4999C10.5998 0.00832031 5.0082 5.59992 5 12.5V47.5001C5.0082 54.4001 10.5998 59.9918 17.4999 60H42.4999C49.4 59.9918 54.9916 54.4001 54.9999 47.5V26.2125C54.9999 25.805 54.9675 25.4025 54.9399 25Z" />
</svg>