<svg viewBox="0 0 60 60" xmlns="http://www.w3.org/2000/svg">
    <path
        d="M19.95 40.275C19.95 41.45 18.925 42.425 17.725 42.425H15.65V38.125H17.75C18.95 38.125 19.975 39.1 19.975 40.275H19.95ZM37.5 20H53.85C52.975 17.725 51.65 15.625 49.875 13.85L41.175 5.125C39.4 3.35 37.3 2.025 35.025 1.15V17.5C35.025 18.875 36.15 20 37.525 20H37.5ZM30.225 38.125H28.125V46.875H30.225C31.425 46.875 32.45 45.9 32.45 44.725V40.275C32.45 39.1 31.425 38.125 30.225 38.125ZM55 26.225V47.5C55 54.4 49.4 60 42.5 60H17.5C10.6 60 5 54.4 5 47.5V12.5C5 5.6 10.6 0 17.5 0H28.775C29.175 0 29.575 0.025 30 0.05V17.5C30 21.625 33.375 25 37.5 25H54.95C54.975 25.4 55 25.8 55 26.225ZM23.075 40.275C23.075 37.375 20.675 35 17.725 35H15C13.625 35 12.5 36.125 12.5 37.5V48.6C12.5 49.475 13.2 50.15 14.05 50.15C14.9 50.15 15.6 49.45 15.6 48.6V45.55H17.7C20.65 45.55 23.05 43.175 23.05 40.275H23.075ZM35.575 40.275C35.575 37.375 33.175 35 30.225 35H27.5C26.125 35 25 36.125 25 37.5V48.6C25 49.475 25.7 50 26.55 50C27.4 50 30.2 50 30.2 50C33.15 50 35.55 47.625 35.55 44.725V40.275H35.575ZM47.55 36.575C47.55 35.7 46.85 35.025 46 35.025H40.225C39.35 35.025 38.675 35.725 38.675 36.575V48.6C38.675 49.475 39.375 50.15 40.225 50.15C41.075 50.15 41.775 49.45 41.775 48.6V44.1H44.875C45.75 44.1 46.425 43.4 46.425 42.55C46.425 41.7 45.725 41 44.875 41H41.775V38.15H46C46.875 38.15 47.55 37.45 47.55 36.6V36.575Z" />

</svg>