<svg viewBox="0 0 60 60" xmlns="http://www.w3.org/2000/svg">
    <path
        d="M32.5 40C32.5 41.375 31.375 42.5 30 42.5H27.5V37.5H30C31.375 37.5 32.5 38.625 32.5 40ZM37.5 20H53.85C52.975 17.725 51.65 15.625 49.875 13.85L41.175 5.125C39.4 3.35 37.3 2.025 35.025 1.15V17.5C35.025 18.875 36.15 20 37.525 20H37.5ZM55 26.225V47.5C55 54.4 49.4 60 42.5 60H17.5C10.6 60 5 54.4 5 47.5V12.5C5 5.6 10.6 0 17.5 0H28.775C29.175 0 29.575 0.025 30 0.05V17.5C30 21.625 33.375 25 37.5 25H54.95C54.975 25.4 55 25.8 55 26.225ZM37.35 38.525C36.65 34.975 33.35 32.525 29.7 32.525H28.05C24.7 32.525 22.475 34.775 22.475 37.525V50.025C22.475 51.4 23.6 52.525 24.975 52.525C26.35 52.525 27.475 51.4 27.475 50.025V47.525H29.975C34.6 47.525 38.25 43.325 37.325 38.525H37.35Z" />
</svg>