<svg xmlns="http://www.w3.org/2000/svg" viewBox="0 0 60 60">
    <path
        d="M35 17.5V1.15C37.2825 2.015 39.3825 3.3475 41.1625 5.125L49.8725 13.84C51.6525 15.6175 52.985 17.7175 53.85 20H37.5C36.12 20 35 18.8775 35 17.5ZM20 45H32.5V35H20V45ZM55 26.2125V47.5C55 54.3925 49.3925 60 42.5 60H17.5C10.6075 60 5 54.3925 5 47.5V12.5C5 5.6075 10.6075 0 17.5 0H28.7875C29.195 0 29.5975 0.0325 30 0.06V17.5C30 21.635 33.365 25 37.5 25H54.94C54.9675 25.4025 55 25.805 55 26.2125ZM45 35.075C45 32.9825 42.6125 31.79 40.9375 33.045L37.5 35.6225V32.4975C37.5 31.1175 36.38 29.9975 35 29.9975H17.5C16.12 29.9975 15 31.1175 15 32.4975V47.4975C15 48.8775 16.12 49.9975 17.5 49.9975H35C36.38 49.9975 37.5 48.8775 37.5 47.4975V44.3725L40.9375 46.95C42.61 48.205 45 47.01 45 44.92V35.075Z" />
</svg>