<svg viewBox="0 0 60 60" xmlns="http://www.w3.org/2000/svg">
    <path
        d="M54.95 25H37.5C33.375 25 30 21.625 30 17.5V0.05C29.6 0.025 29.2 0 28.775 0H17.5C10.6 0 5 5.6 5 12.5V47.5C5 54.4 10.6 60 17.5 60H42.5C49.4 60 55 54.4 55 47.5V26.225C55 25.825 54.975 25.425 54.95 25ZM41.8 35.6L38.25 49.75C37.875 51.275 36.55 52.375 34.975 52.475C33.4 52.575 31.95 51.675 31.375 50.2L30 46.75L28.625 50.2C28.075 51.6 26.75 52.475 25.275 52.475C25.2 52.475 25.1 52.475 25.025 52.475C23.45 52.375 22.15 51.275 21.75 49.725L18.225 35.575C17.9 34.225 18.7 32.875 20.05 32.55C21.375 32.225 22.75 33.025 23.075 34.375L25.575 44.375L27.7 39.05C28.075 38.1 29 37.475 30.025 37.475C31.05 37.475 31.975 38.1 32.35 39.05L34.45 44.375L36.975 34.375C37.3 33.025 38.675 32.225 40 32.55C41.35 32.875 42.15 34.25 41.825 35.575L41.8 35.6ZM35 17.5V1.15C37.275 2.025 39.375 3.35 41.15 5.125L49.85 13.85C51.625 15.625 52.95 17.725 53.825 20H37.475C36.1 20 34.975 18.875 34.975 17.5H35Z" />
</svg>