<svg viewBox="0 0 22 23" xmlns="http://www.w3.org/2000/svg">
    <path fill-rule="evenodd" clip-rule="evenodd"
        d="M3.6665 15.333C4.08072 15.333 4.4165 15.6688 4.4165 16.083V17.9163C4.4165 18.2037 4.53064 18.4792 4.7338 18.6824C4.93697 18.8855 5.21252 18.9997 5.49984 18.9997H16.4998C16.7872 18.9997 17.0627 18.8855 17.2659 18.6824C17.469 18.4792 17.5832 18.2037 17.5832 17.9163V16.083C17.5832 15.6688 17.919 15.333 18.3332 15.333C18.7474 15.333 19.0832 15.6688 19.0832 16.083V17.9163C19.0832 18.6015 18.811 19.2586 18.3265 19.743C17.8421 20.2275 17.185 20.4997 16.4998 20.4997H5.49984C4.81469 20.4997 4.15761 20.2275 3.67314 19.743C3.18868 19.2586 2.9165 18.6015 2.9165 17.9163V16.083C2.9165 15.6688 3.25229 15.333 3.6665 15.333Z" />
    <path fill-rule="evenodd" clip-rule="evenodd"
        d="M10.4695 3.63666C10.7624 3.34377 11.2373 3.34377 11.5302 3.63666L16.1135 8.22C16.4064 8.51289 16.4064 8.98776 16.1135 9.28066C15.8206 9.57355 15.3457 9.57355 15.0528 9.28066L10.9998 5.22765L6.94683 9.28066C6.65394 9.57355 6.17907 9.57355 5.88617 9.28066C5.59328 8.98776 5.59328 8.51289 5.88617 8.22L10.4695 3.63666Z" />
    <path fill-rule="evenodd" clip-rule="evenodd"
        d="M11 3.41699C11.4142 3.41699 11.75 3.75278 11.75 4.16699V15.167C11.75 15.5812 11.4142 15.917 11 15.917C10.5858 15.917 10.25 15.5812 10.25 15.167V4.16699C10.25 3.75278 10.5858 3.41699 11 3.41699Z" />
</svg>