<svg viewBox="0 0 24 25" xmlns="http://www.w3.org/2000/svg">
    <path fill-rule="evenodd" clip-rule="evenodd"
        d="M4.05546 6.55546C4.57118 6.03973 5.27065 5.75 6 5.75H12C12.4142 5.75 12.75 6.08579 12.75 6.5C12.75 6.91421 12.4142 7.25 12 7.25H6C5.66848 7.25 5.35054 7.3817 5.11612 7.61612C4.8817 7.85054 4.75 8.16848 4.75 8.5V18.5C4.75 18.8315 4.8817 19.1495 5.11612 19.3839C5.35054 19.6183 5.66848 19.75 6 19.75H16C16.3315 19.75 16.6495 19.6183 16.8839 19.3839C17.1183 19.1495 17.25 18.8315 17.25 18.5V12.5C17.25 12.0858 17.5858 11.75 18 11.75C18.4142 11.75 18.75 12.0858 18.75 12.5V18.5C18.75 19.2293 18.4603 19.9288 17.9445 20.4445C17.4288 20.9603 16.7293 21.25 16 21.25H6C5.27065 21.25 4.57118 20.9603 4.05546 20.4445C3.53973 19.9288 3.25 19.2293 3.25 18.5V8.5C3.25 7.77065 3.53973 7.07118 4.05546 6.55546Z" />
    <path fill-rule="evenodd" clip-rule="evenodd"
        d="M20.5303 3.96967C20.8232 4.26256 20.8232 4.73744 20.5303 5.03033L11.5303 14.0303C11.2374 14.3232 10.7626 14.3232 10.4697 14.0303C10.1768 13.7374 10.1768 13.2626 10.4697 12.9697L19.4697 3.96967C19.7626 3.67678 20.2374 3.67678 20.5303 3.96967Z" />
    <path fill-rule="evenodd" clip-rule="evenodd"
        d="M14.25 4.5C14.25 4.08579 14.5858 3.75 15 3.75H20C20.4142 3.75 20.75 4.08579 20.75 4.5V9.5C20.75 9.91421 20.4142 10.25 20 10.25C19.5858 10.25 19.25 9.91421 19.25 9.5V5.25H15C14.5858 5.25 14.25 4.91421 14.25 4.5Z" />
</svg>